<svg width="37" height="37" viewBox="0 0 37 37" fill="none" xmlns="http://www.w3.org/2000/svg">
<circle cx="18.5" cy="18.5" r="17" stroke="#254882" stroke-width="3"/>
<path d="M21.4364 11.3587C21.855 11.9624 22.1285 12.5957 22.268 13.2912C22.3015 13.4569 22.4187 13.3948 22.5024 13.3948C23.1359 13.4007 23.7693 13.3948 24.4028 13.3977C24.8716 13.3977 25 13.5398 25 14.0399C25 14.4365 25 14.836 25 15.2326C24.9972 15.6114 24.8549 15.7594 24.4921 15.7594C23.8503 15.7594 23.2056 15.7683 22.5638 15.7564C22.3908 15.7535 22.321 15.7978 22.2819 15.9873C21.8326 18.2867 20.4457 19.6422 18.3862 20.3228C17.9174 20.4767 17.4374 20.5537 16.9323 20.6602C17.3174 21.1101 17.6942 21.5362 18.0569 21.9742C19.3239 23.4954 20.5685 25.0372 21.7713 26.6146C22.1843 27.1592 22.6029 27.6948 23.0242 28.2334C23.1442 28.3873 23.1917 28.5442 23.1052 28.7277C23.0187 28.9111 22.8847 29.0029 22.6782 28.9999C21.8382 28.9911 21.001 28.9881 20.1611 28.9999C19.9294 29.0029 19.7983 28.8668 19.6727 28.7099C19.1788 28.0884 18.6988 27.4581 18.2021 26.8425C17.3872 25.8304 16.5667 24.8242 15.7491 23.815C14.9203 22.791 14.0636 21.7907 13.1957 20.8023C13.0589 20.6484 12.9948 20.4856 13.0003 20.2696C13.0143 19.7487 13.0031 19.2278 13.0059 18.707C13.0059 18.3193 13.1594 18.1536 13.5194 18.1476C14.3203 18.1358 15.1268 18.195 15.9249 18.0885C16.9072 17.9582 17.8393 17.6978 18.5537 16.8928C18.7965 16.6206 18.9471 16.295 19.0811 15.9547C19.1397 15.8067 19.1062 15.7535 18.9527 15.7564C18.4616 15.7623 17.9704 15.7564 17.4793 15.7564C16.1844 15.7564 14.8896 15.7564 13.5975 15.7564C13.1175 15.7564 13.0087 15.638 13.0059 15.1172C13.0059 14.7206 13.0059 14.3211 13.0059 13.9245C13.0059 13.5783 13.1399 13.4214 13.4636 13.3977C13.5892 13.3889 13.7147 13.3948 13.8375 13.3948C15.4365 13.3948 17.0328 13.3948 18.6318 13.3948C18.7155 13.3948 18.8383 13.4421 18.8774 13.3533C18.9192 13.2586 18.8188 13.1728 18.763 13.09C18.3025 12.4122 17.6356 12.1163 16.8988 11.9535C15.8077 11.7138 14.6998 11.7996 13.5975 11.7848C13.1147 11.7789 13.0059 11.6665 13.0059 11.1486C13.0059 10.6099 13.0059 10.0684 13.0059 9.52974C13.0059 9.15389 13.151 9 13.511 9C17.1695 9 20.8308 9 24.4893 9C24.7991 9 24.9609 9.14205 24.9721 9.46759C24.9888 9.9411 24.986 10.4146 24.9721 10.8881C24.9637 11.2225 24.7963 11.3616 24.4307 11.3616C23.521 11.3616 22.6084 11.3557 21.6987 11.3557C21.6234 11.3557 21.548 11.3557 21.4308 11.3557L21.4364 11.3587Z" fill="#254882"/>
</svg>
