<svg width="79" height="96" viewBox="0 0 79 96" fill="none" xmlns="http://www.w3.org/2000/svg">
<path d="M47.4642 0.0625C49.4237 0.90764 50.1354 2.59543 50.0368 4.93506C49.9618 6.6303 50.0218 8.33297 50.0218 10.0505C53.1004 9.34416 55.7287 11.9663 55.2185 15.8302C58.1547 15.9873 61.0501 16.6886 63.7939 17.9071C69.6381 20.5045 74.4446 24.5493 77.0258 31.3748C79.8493 38.8348 78.7881 45.8017 74.2045 51.8366C69.1965 58.4267 62.8035 62.3029 55.2871 63.6512C50.4034 64.5286 45.9206 63.4703 42.0123 59.8667C38.2713 56.4167 36.2797 51.7598 35.6258 46.3692C34.7232 38.9141 36.2303 32.0068 39.5469 25.5877C39.6412 25.4043 39.7227 25.2159 39.8406 24.9706L38.6379 24.061C37.4116 25.7579 36.1817 27.4589 34.9483 29.1641C33.2868 31.469 31.6468 33.7962 29.9553 36.0739C29.4446 36.7505 29.1783 37.6279 29.2113 38.525C29.2263 54.7537 29.2113 70.9923 29.2371 87.211C29.2371 90.1232 28.4503 92.5049 26.2978 94.0986C25.6139 94.5942 24.7971 94.8619 24.0403 95.2337H21.9415C20.5373 94.738 19.2445 94.0143 18.2476 92.6115C17.2357 94.0614 15.9451 94.7405 14.5602 95.2337H12.4742C8.72676 94.044 7.17245 90.9386 7.25178 86.3808C7.39327 78.4498 7.29251 70.5189 7.29251 62.588V61.5272C7.16556 61.5338 7.03933 61.5529 6.91519 61.5842C3.80659 62.9771 0.344256 60.2037 0.417147 55.9607C0.520052 49.9877 0.434299 44.0098 0.445018 38.0318C0.459031 34.7311 1.36565 31.518 3.03792 28.8426C4.71019 26.1672 7.06437 24.1634 9.77081 23.1118C10.384 22.8639 11.01 22.6904 11.7003 22.455C10.1867 20.7449 9.15123 18.7845 8.85752 16.4647C8.66726 14.6851 8.60131 12.8907 8.66029 11.0989C8.71818 7.44323 10.0366 4.48895 12.5428 2.2435C13.8141 1.10343 15.2955 0.558183 16.8134 0.0625L19.7012 0.0625C19.8394 0.140043 19.9828 0.204695 20.1299 0.255824C23.7145 1.21993 26.1992 3.67851 27.3591 7.72081C28.2016 10.6528 28.0279 13.7062 27.6099 16.7125C27.3312 18.6952 26.4265 20.3781 25.3996 22.0213C25.9211 21.7672 26.3924 21.3927 26.7845 20.9208C28.9126 18.0261 31.0186 15.1073 33.1024 12.1646C33.1891 12.0278 33.2506 11.8718 33.2831 11.7064C33.3155 11.541 33.3183 11.3697 33.2911 11.203C33.13 10.5957 33.0963 9.95269 33.1929 9.32733C33.2895 8.70197 33.5135 8.11219 33.8464 7.6068C35.8595 4.45425 38.445 2.20632 41.6693 1.00181C42.7241 0.607746 43.8132 0.372302 44.898 0.0625L47.4642 0.0625ZM38.0591 42.9168C38.1555 43.8635 38.207 45.4225 38.4878 46.9244C40.1107 55.7252 45.6848 61.78 54.2731 60.5928C61.2149 59.6312 67.1362 55.9805 71.917 50.0497C74.1659 47.2639 75.538 43.9404 75.716 40.0641C75.9732 34.5323 73.9794 30.0538 70.6264 26.3709C66.4073 21.7363 61.2385 19.5453 55.4951 19.0174C53.9224 18.8376 52.3405 19.2292 50.9694 20.1377C48.7462 21.6049 46.4222 22.8639 44.154 24.2543C43.7541 24.4978 43.4029 24.8355 43.1228 25.2457C39.7763 30.2694 38.2113 35.9995 38.0591 42.9168ZM13.0745 25.5456C7.50047 26.133 3.23204 31.6177 3.19559 38.2276C3.16558 44.1114 3.19559 49.9976 3.19559 55.8839C3.19465 56.2546 3.23282 56.6242 3.30923 56.9843C3.42439 57.4953 3.68708 57.9456 4.05382 58.2605C4.42056 58.5753 4.86934 58.7359 5.32582 58.7157C5.7823 58.6955 6.21911 58.4956 6.5639 58.1492C6.9087 57.8027 7.14081 57.3305 7.22177 56.8108C7.2779 56.3827 7.30299 55.95 7.2968 55.5171C7.2968 49.8497 7.2968 44.1808 7.2968 38.5102C7.2968 37.271 7.82419 36.5274 8.66673 36.5274C9.50927 36.5274 10.0452 37.2957 10.0559 38.5102C10.0559 38.758 10.0559 39.0058 10.0559 39.2537V87.1144C10.0559 87.4861 10.0452 87.8579 10.0559 88.2297C10.1889 90.7477 12.3756 92.5793 14.4273 91.8952C15.913 91.3996 16.8348 89.8902 16.837 87.8703C16.837 80.0022 16.837 72.1332 16.837 64.2634C16.8228 63.8322 16.8654 63.4009 16.9635 62.9845C17.0577 62.6805 17.231 62.4177 17.4598 62.2323C17.6885 62.047 17.9614 61.9482 18.2407 61.9495C18.52 61.9509 18.7922 62.0524 19.0195 62.2399C19.2469 62.4275 19.4184 62.692 19.5104 62.9969C19.6056 63.4139 19.6475 63.8447 19.6347 64.2758C19.6347 71.9589 19.6347 79.6419 19.6347 87.325C19.6347 87.7588 19.6347 88.1925 19.6604 88.6237C19.8319 90.8543 21.8322 92.4851 23.7102 91.9299C25.4038 91.4343 26.4243 89.8357 26.4243 87.6596C26.4243 71.2426 26.42 54.8248 26.4115 38.4061C26.3775 36.8202 26.8604 35.2774 27.7642 34.0837C30.8235 29.9026 33.8399 25.6769 36.8649 21.4611C37.045 21.2133 37.2765 20.8886 37.2765 20.6011C37.2765 19.0819 37.8211 17.8749 38.7773 16.7819L35.4671 13.9416C35.1263 14.4051 34.824 14.8016 34.5431 15.2031C32.6544 17.8154 30.7571 20.4202 28.879 23.0399C27.7085 24.6707 26.2035 25.4439 24.3941 25.491C24.0811 25.491 23.7659 25.491 23.5365 25.491C22.5825 28.4081 22.3167 31.236 22.8376 34.22C23.2836 36.7901 23.4486 39.4247 23.7145 42.0369C23.8495 43.3654 23.365 44.384 22.4282 45.1201C21.5878 45.7769 20.7431 46.4312 19.8898 47.0681C18.7879 47.8959 17.6817 47.8711 16.5883 47.0334C15.8744 46.4857 15.1841 45.8934 14.4444 45.3952C13.0981 44.4832 12.6179 43.1646 12.8365 41.4025C13.1603 38.8324 13.4561 36.2573 13.7455 33.6822C13.8785 32.4876 14.1486 31.2658 14.035 30.0959C13.8785 28.5643 13.4132 27.0946 13.0745 25.5456ZM25.1787 12.7024H25.0415C25.0415 11.9911 25.0801 11.2749 25.0415 10.5685C24.7907 6.60304 22.2052 3.64877 18.6914 3.27205C15.5485 2.93747 12.352 5.51997 11.7024 9.22025C11.3766 11.0691 11.4173 13.037 11.488 14.9404C11.6531 18.7151 14.3029 21.88 17.418 22.1923C20.9789 22.5616 24.0339 20.1724 24.8357 16.2837C25.0801 15.1214 25.0737 13.8945 25.1787 12.7024ZM47.3077 7.68611H47.2262C47.2262 6.57082 47.2026 5.45554 47.2262 4.34273C47.2519 3.48024 46.9239 3.19274 46.2122 3.23735C42.0745 3.50006 38.7237 5.46792 36.1896 9.2946C35.7909 9.89438 35.8316 10.286 36.3697 10.742C37.9561 12.0531 39.5105 13.4236 41.1076 14.7075C41.2474 14.7907 41.4012 14.8374 41.5583 14.8443C41.7154 14.8511 41.8719 14.818 42.0166 14.7471C43.6245 13.845 45.2196 12.9032 46.7867 11.9093C46.9244 11.7937 47.0392 11.6455 47.1235 11.4745C47.2078 11.3036 47.2596 11.1139 47.2755 10.918C47.3463 9.85472 47.3077 8.7667 47.3077 7.68363V7.68611ZM18.2969 31.8209C17.9754 31.8209 17.6538 31.8482 17.3365 31.8209C16.8649 31.7714 16.6933 31.9845 16.6419 32.5397C16.316 35.6352 15.943 38.7357 15.6193 41.8213C15.6158 41.9721 15.6406 42.122 15.692 42.2606C15.7435 42.3993 15.8203 42.5233 15.9173 42.6243C18.1662 44.5947 18.1726 44.5848 20.4987 42.7458C20.5437 42.7111 20.608 42.6888 20.6273 42.6392C20.7302 42.3914 20.9232 42.1435 20.8996 41.8957C20.6137 39.105 20.3108 36.3168 19.9906 33.531C19.7805 31.8184 19.7569 31.8209 18.2969 31.8209ZM52.4851 15.1065C52.5215 13.5104 51.5032 12.7693 50.4742 13.3716C47.2641 15.2469 44.0654 17.147 40.8782 19.072C40.1129 19.5305 39.877 20.3657 40.2072 21.1662C40.5374 21.9667 41.3113 22.3162 42.1045 21.8478C45.3203 19.9667 48.5147 18.0707 51.6919 16.1251C52.0842 15.8872 52.3264 15.3172 52.4851 15.1065ZM15.9387 25.5233C16.1402 26.4799 16.286 27.3251 16.5111 28.1405C16.5727 28.2584 16.6573 28.3579 16.7582 28.4311C16.8591 28.5043 16.9735 28.549 17.0921 28.5618C17.8617 28.6114 18.6378 28.6064 19.4096 28.5618C19.6068 28.5618 19.9284 28.3908 19.9713 28.2247C20.1986 27.3573 20.3529 26.4675 20.5437 25.5183L15.9387 25.5233Z" fill="#1A237E"/>
<path d="M61.2556 47.7423C61.47 48.2553 61.7058 48.7336 61.8988 49.2491C62.2589 50.1711 62.0124 51.0807 61.3156 51.4797C61.1556 51.5802 60.979 51.6407 60.7974 51.6574C60.6159 51.674 60.4333 51.6464 60.2615 51.5763C60.0897 51.5062 59.9326 51.3952 59.8003 51.2505C59.668 51.1058 59.5634 50.9306 59.4934 50.7362C59.0817 49.5664 58.4729 49.2491 57.3902 49.2888C55.4264 49.3557 53.9257 48.2082 52.8881 46.2899C52.3564 45.2985 52.4872 44.3567 53.1861 43.8412C53.885 43.3257 54.6311 43.5562 55.2056 44.5674C55.8488 45.7025 56.7449 46.3197 57.9133 46.1313C59.0817 45.9429 59.9007 45.1251 60.2137 43.7495C60.3434 43.2243 60.3436 42.6676 60.2145 42.1421C60.0853 41.6167 59.8319 41.1434 59.4826 40.7754C58.773 39.9625 57.9005 39.6279 56.91 39.965C56.1961 40.2128 55.5122 40.6069 54.7876 40.7655C53.6771 41.008 52.5289 40.8455 51.5017 40.3006C50.4746 39.7556 49.6193 38.8551 49.0543 37.7237C48.4892 36.5922 48.2423 35.2857 48.3476 33.9849C48.453 32.6841 48.9054 31.4533 49.6423 30.4627C50.0432 29.92 50.1247 29.516 49.7688 28.9459C49.6055 28.663 49.4771 28.3552 49.3872 28.0314C49.2663 27.6665 49.2681 27.2625 49.3924 26.899C49.5166 26.5356 49.7542 26.2393 50.0582 26.0685C50.6585 25.7166 51.4903 25.8355 51.7433 26.5642C52.23 27.9645 52.9739 28.2991 54.2538 28.2768C56.0546 28.2768 57.491 29.4119 58.4729 31.2063C59.041 32.2497 58.9188 33.189 58.1727 33.7169C57.4588 34.2126 56.7235 33.935 56.1489 32.9486C55.3943 31.6499 54.2388 31.1195 53.0296 31.5136C52.4827 31.721 52.0062 32.1224 51.6679 32.6607C51.3296 33.1991 51.1467 33.8471 51.1452 34.5125C51.1452 35.8954 51.8805 37.1916 53.0746 37.4544C53.8251 37.5997 54.5957 37.5037 55.3021 37.1768C58.6122 35.6178 62.1496 37.6155 62.9235 41.6379C63.3394 43.8041 62.8399 45.7397 61.5343 47.3829C61.4378 47.492 61.3542 47.6109 61.2556 47.7423Z" fill="#1A237E"/>
</svg>
