<svg width="53" height="53" viewBox="0 0 53 53" fill="none" xmlns="http://www.w3.org/2000/svg">
<circle cx="26.5" cy="26.5" r="26.5" fill="black"/>
<path fill-rule="evenodd" clip-rule="evenodd" d="M19.625 23.0625C19.625 22.6828 19.9328 22.375 20.3125 22.375H32.6875C33.0672 22.375 33.375 22.6828 33.375 23.0625C33.375 23.4422 33.0672 23.75 32.6875 23.75H20.3125C19.9328 23.75 19.625 23.4422 19.625 23.0625Z" fill="white"/>
<path fill-rule="evenodd" clip-rule="evenodd" d="M19.625 27.1875C19.625 26.8078 19.9328 26.5 20.3125 26.5H32.6875C33.0672 26.5 33.375 26.8078 33.375 27.1875C33.375 27.5672 33.0672 27.875 32.6875 27.875H20.3125C19.9328 27.875 19.625 27.5672 19.625 27.1875Z" fill="white"/>
<path fill-rule="evenodd" clip-rule="evenodd" d="M19.625 18.9375C19.625 18.5578 19.9328 18.25 20.3125 18.25H27.1875C27.5672 18.25 27.875 18.5578 27.875 18.9375C27.875 19.3172 27.5672 19.625 27.1875 19.625H20.3125C19.9328 19.625 19.625 19.3172 19.625 18.9375Z" fill="white"/>
<path fill-rule="evenodd" clip-rule="evenodd" d="M19.625 31.3125C19.625 30.9328 19.9328 30.625 20.3125 30.625H32.6875C33.0672 30.625 33.375 30.9328 33.375 31.3125C33.375 31.6922 33.0672 32 32.6875 32H20.3125C19.9328 32 19.625 31.6922 19.625 31.3125Z" fill="white"/>
<path fill-rule="evenodd" clip-rule="evenodd" d="M19.625 35.4375C19.625 35.0578 19.9328 34.75 20.3125 34.75H32.6875C33.0672 34.75 33.375 35.0578 33.375 35.4375C33.375 35.8172 33.0672 36.125 32.6875 36.125H20.3125C19.9328 36.125 19.625 35.8172 19.625 35.4375Z" fill="white"/>
<path fill-rule="evenodd" clip-rule="evenodd" d="M31.3125 13.4375C31.6922 13.4375 32 13.7453 32 14.125V17.8375C32 18.0628 32.1872 18.25 32.4125 18.25H36.125C36.5047 18.25 36.8125 18.5578 36.8125 18.9375C36.8125 19.3172 36.5047 19.625 36.125 19.625H32.4125C31.4278 19.625 30.625 18.8222 30.625 17.8375V14.125C30.625 13.7453 30.9328 13.4375 31.3125 13.4375Z" fill="white"/>
<path fill-rule="evenodd" clip-rule="evenodd" d="M17.3975 14.125C17.0747 14.125 16.875 14.3671 16.875 14.5788V38.4213C16.875 38.6329 17.0747 38.875 17.3975 38.875H35.5887C35.9115 38.875 36.1112 38.6329 36.1112 38.4213V19.5012C36.1112 19.3055 36.0414 19.1387 35.9139 19.0111L31.2326 14.3299C31.0887 14.1961 30.9129 14.125 30.735 14.125H17.3975ZM15.5 14.5788C15.5 13.5254 16.4003 12.75 17.3975 12.75H30.735C31.2973 12.75 31.8065 12.9795 32.1841 13.3372L32.1976 13.3499L32.1974 13.3501L36.8861 18.0389C37.2811 18.4338 37.4862 18.9545 37.4862 19.5012V38.4213C37.4862 39.4746 36.586 40.25 35.5887 40.25H17.3975C16.4003 40.25 15.5 39.4746 15.5 38.4213V14.5788Z" fill="white"/>
</svg>
