<svg width="24" height="30" viewBox="0 0 24 30" fill="none" xmlns="http://www.w3.org/2000/svg">
<path d="M10.5001 28.5576C11.5713 29.3296 12.4567 30 12.4567 30C12.4567 30 17.1731 27.1089 19.5613 23.871C25.0692 16.399 24.012 7.57984 23.7342 5.63835C16.2059 4.99965 12.4587 0 12.4567 0C12.4567 0 11.5474 1.00247 10.4941 1.91399C11.1197 2.82763 12.7944 4.16426 14.9648 5.39091C17.2571 6.68523 19.3755 6.87346 20.4527 6.89249C20.7205 8.6669 21.6837 16.3081 17.0013 22.9954C14.8689 26.0409 12.2069 27.5996 10.4981 28.5597L10.5001 28.5576Z" fill="#1A237E"/>
<path d="M20.4547 6.57314C17.0372 6.27494 13.6138 4.81777 11.1716 2.22277C11.0098 2.05147 10.8619 1.86747 10.708 1.6877C10.6021 1.56504 10.3902 1.56504 10.2843 1.6877C8.67752 3.55517 6.63305 4.92774 4.36875 5.73775C3.12968 6.18189 1.84065 6.45682 0.535624 6.57103C0.415714 6.5816 0.267825 6.66197 0.245842 6.80367C-0.157856 9.6313 -0.0699216 12.5499 0.521635 15.3416C0.985287 17.5347 1.78269 19.656 2.91184 21.5636C3.49341 22.5471 4.15491 23.4797 4.92233 24.3109C5.62581 25.0701 6.39523 25.7575 7.18863 26.4068C7.84814 26.9461 8.52963 27.4558 9.2271 27.9401C9.58084 28.1854 9.93657 28.4477 10.3103 28.657C10.5821 28.8093 10.8439 28.5576 11.0697 28.4075C11.6373 28.0353 12.1929 27.644 12.7365 27.2379C14.3293 26.0472 15.8881 24.7191 17.0832 23.0758C18.4422 21.2083 19.4554 19.0786 20.1009 16.822C20.9703 13.7786 21.2001 10.5005 20.8144 7.3472C20.7924 7.16532 20.7684 6.98344 20.7425 6.80367C20.6845 6.40184 20.1069 6.57314 20.1649 6.97286C20.2169 7.33663 20.2548 7.66444 20.2928 8.09376C20.3468 8.71343 20.3787 9.33522 20.3867 9.957C20.4087 11.6849 20.2548 13.4128 19.9051 15.1005C19.4594 17.2429 18.696 19.3007 17.6048 21.1681C17.0452 22.1241 16.4117 23.0293 15.6683 23.835C14.9928 24.5689 14.2553 25.2372 13.4919 25.8632C12.4987 26.6775 11.4474 27.4917 10.3423 28.1325H10.644C9.73073 27.6144 8.86538 26.944 8.032 26.2947C6.44319 25.0553 4.97629 23.6574 3.85114 21.9295C1.67677 18.5837 0.639546 14.5548 0.603573 10.5132C0.597578 9.773 0.62156 9.03278 0.681515 8.2968C0.703498 8.03243 0.72748 7.76595 0.759456 7.50159C0.785437 7.28375 0.793431 7.21608 0.827405 6.97498L0.537623 7.20762C4.09895 6.89673 7.65029 5.40571 10.2084 2.71132C10.3842 2.52732 10.5441 2.33063 10.71 2.13818H10.2863C11.9651 4.08601 14.1114 5.50511 16.4697 6.35319C17.7587 6.81636 19.1017 7.0913 20.4587 7.20973C20.8424 7.24357 20.8404 6.6091 20.4587 6.57526L20.4547 6.57314Z" fill="#221F20"/>
<path d="M6.29562 14.5684C7.04906 15.6386 7.80049 16.7087 8.55393 17.7789C8.67584 17.9544 8.8637 17.984 9.02557 17.8423C9.77501 17.1909 10.5244 16.5374 11.2739 15.886L14.8592 12.7665C15.135 12.5276 15.4088 12.2886 15.6846 12.0475C15.9824 11.7873 15.5567 11.3411 15.2609 11.5991C14.5115 12.2505 13.762 12.904 13.0126 13.5554L9.42727 16.6749C9.15148 16.9139 8.87769 17.1529 8.60189 17.394L9.07354 17.4574C8.3201 16.3873 7.56867 15.3171 6.81523 14.247C6.5874 13.9234 6.06779 14.2385 6.29762 14.5663L6.29562 14.5684Z" fill="#221F20"/>
</svg>
