<svg width="37" height="37" viewBox="0 0 37 37" fill="none" xmlns="http://www.w3.org/2000/svg">
<path d="M18.4993 4.07617C23.0704 7.52642 28.4539 8.70733 32.2387 9.08658C31.2243 19.9584 24.6968 28.5008 18.4993 33.2214C12.3003 28.5008 5.77289 19.9584 4.76002 9.08504C8.54326 8.70733 13.9283 7.52642 18.4993 4.07617V4.07617ZM18.4993 0C13.8805 4.61729 6.95843 6.16667 1.54102 6.16667C1.54102 19.3988 9.35264 30.9829 18.4993 37C27.6445 30.9829 35.4577 19.3988 35.4577 6.16667C30.0387 6.16667 23.1151 4.61729 18.4993 0ZM24.3484 12.3333L17.5944 19.2323L14.1796 15.9593L12.2726 17.8695L17.5944 23.0525L26.257 14.2419L24.3484 12.3333V12.3333Z" fill="#254882"/>
</svg>
