<svg width="37" height="37" viewBox="0 0 37 37" fill="none" xmlns="http://www.w3.org/2000/svg">
<path d="M37 18.5C37 28.7166 28.7166 37 18.5 37C8.28338 37 0 28.7166 0 18.5H3.08333C3.08333 27.0007 9.99925 33.9167 18.5 33.9167C27.0007 33.9167 33.9167 27.0007 33.9167 18.5C33.9167 9.99925 27.0007 3.08333 18.5 3.08333C14.2188 3.08333 10.3492 4.84238 7.55571 7.67288L10.7331 10.8502L0 12.9377L2.01187 2.12596L5.37117 5.48679C8.71967 2.10129 13.3601 0 18.5 0C28.7166 0 37 8.28338 37 18.5ZM16.9583 9.25V21.5833H27.75V18.5H20.0417V9.25H16.9583Z" fill="#254882"/>
</svg>
