<svg width="69" height="89" viewBox="0 0 69 89" fill="none" xmlns="http://www.w3.org/2000/svg">
<path d="M0.583984 62.3653C0.673529 62.0751 0.763074 61.785 0.847352 61.4948C1.12545 60.5757 1.60803 59.7877 2.23228 59.2332C2.85654 58.6788 3.59357 58.3836 4.3475 58.386C6.37807 58.386 8.41127 58.4413 10.4392 58.3653C11.893 58.3135 13.144 58.766 14.1105 60.3066L16.1016 59.3463C15.8198 57.8403 15.4827 56.4033 15.2878 54.9353C13.8946 44.393 16.02 35.2462 21.7087 27.5675C24.511 23.792 27.379 20.1029 30.2339 16.3931C30.3764 16.2458 30.4759 16.0388 30.5157 15.8067C30.5555 15.5746 30.5332 15.3316 30.4525 15.1185C29.6124 12.0512 28.7775 8.97691 28.0085 5.87502C27.8126 5.11974 27.7789 4.30834 27.911 3.52961C28.335 1.49507 30.2497 0.735142 31.5587 1.98211C32.7912 3.15309 33.0309 3.13928 34.1923 1.85085C35.2974 0.623803 36.7054 -0.0336357 38.153 0.00132599C39.6007 0.0362877 40.9892 0.761265 42.0591 2.04084C42.9388 3.07711 43.4524 3.07711 44.3768 2.12029C44.7813 1.66424 45.2901 1.39797 45.8228 1.36356C46.3556 1.32916 46.8819 1.52857 47.3186 1.9303C48.2167 2.74895 48.5564 4.13064 48.1693 5.62286C47.3555 8.7662 46.5311 11.9061 45.6752 15.0287C45.5835 15.2645 45.5573 15.5349 45.6011 15.7933C45.6448 16.0517 45.7557 16.2821 45.9148 16.4449C48.243 19.4535 50.5422 22.4967 52.8572 25.5192C53.2707 26.0649 53.5499 26.6591 53.384 27.4535C53.3263 27.7429 53.2123 28.0076 53.0532 28.2218C52.8941 28.4361 52.6954 28.5924 52.4763 28.6757C52.2573 28.7589 52.0256 28.7661 51.8038 28.6966C51.582 28.627 51.3778 28.4832 51.2112 28.2791C50.6344 27.6055 50.1077 26.8594 49.5625 26.1444C47.5951 23.5641 45.6383 20.963 43.6499 18.4207C43.3854 18.103 43.0442 17.9171 42.686 17.8957C39.5958 17.8542 36.5056 17.8542 33.4154 17.8957C33.0778 17.913 32.7559 18.0868 32.5068 18.3862C29.507 22.2722 26.5125 26.1651 23.5523 30.1064C19.2357 35.8645 17.2315 42.8144 17.5554 50.8697C17.6451 53.2959 18.0209 55.6893 18.6694 57.9646C20.0258 57.5087 21.3031 56.9767 22.62 56.6589C26.157 55.7954 29.5518 56.4897 32.7939 58.4966C35.82 60.3722 38.8513 62.2755 41.8537 64.1753C44.1134 65.6019 45.1142 67.861 44.9694 71.1528C44.9694 71.3428 44.9694 71.5328 44.9694 71.9887C45.741 71.2392 46.4231 70.6692 47.0236 69.9784C50.4351 66.036 53.8326 62.074 57.216 58.0924C57.4321 57.8141 57.5907 57.4682 57.6769 57.0873C58.9132 51.8587 58.9031 46.2598 57.6479 41.039C57.6031 40.8455 57.5504 40.6555 57.5083 40.4586C57.2792 39.3948 57.6136 38.4863 58.3537 38.1616C58.5219 38.085 58.7004 38.0552 58.8778 38.0738C59.0553 38.0925 59.2279 38.1593 59.3846 38.2701C59.5414 38.3808 59.6788 38.533 59.7883 38.7171C59.8979 38.9012 59.977 39.1132 60.0208 39.3395C60.403 41.0262 60.7203 42.737 60.9716 44.4655C61.3684 47.5761 61.3756 50.7509 60.9926 53.8645C61.5194 53.6814 62.0145 53.4569 62.5149 53.3498C63.5764 53.1119 64.6681 53.325 65.6307 53.9583C66.5932 54.5915 67.3763 55.6116 67.8657 56.8697C68.355 58.1279 68.525 59.5582 68.3508 60.952C68.1766 62.3458 67.6673 63.6301 66.8973 64.6175C63.9248 68.4539 60.9338 72.2674 57.9244 76.0578C55.9017 78.6001 53.9291 81.2391 51.7511 83.5293C48.8224 86.6174 45.3723 88.2616 41.6272 88.7901C41.4557 88.8298 41.2866 88.8863 41.1215 88.9593H3.63115C2.8993 88.7011 2.23229 88.1944 1.69732 87.4904C1.16235 86.7863 0.778335 85.9097 0.583984 84.949V62.3653ZM14.8875 85.4913H38.9435C44.1292 85.4913 48.5854 83.1355 52.2989 78.3687C55.2486 74.5691 58.2168 70.8247 61.177 67.0527C62.4438 65.4361 63.7238 63.8437 64.9642 62.196C66.2811 60.4448 65.8281 57.6572 64.1083 56.9249C63.1154 56.5 62.2647 56.8904 61.4957 57.7954C57.4003 62.5967 53.2839 67.3705 49.1832 72.1684C47.8058 73.7815 46.3125 75.1424 44.5611 75.968C42.0934 77.1148 39.6204 77.5639 37.0789 76.2582C35.8726 75.6399 34.6111 75.2219 33.3759 74.6899C30.924 73.6537 28.4694 72.645 26.02 71.6019C25.7173 71.5009 25.4513 71.2636 25.2683 70.9315C25.0854 70.5994 24.9973 70.1936 25.0193 69.785C25.0403 69.391 25.1637 69.0184 25.3688 68.7293C25.5739 68.4401 25.8484 68.2519 26.1465 68.196C26.4748 68.1805 26.8023 68.2498 27.1104 68.3998C31.0951 70.0475 35.0773 71.7193 39.0646 73.3601C40.4263 73.9231 41.6983 73.1494 42.1698 71.5432C42.6412 69.9369 42.1171 68.2582 40.8239 67.443C37.6293 65.4223 34.4478 63.3705 31.2216 61.4396C28.4141 59.7574 25.4275 59.2565 22.4435 60.3066C20.0732 61.1391 17.7845 62.3791 15.4485 63.4154C14.9823 63.6192 14.8743 63.9301 14.877 64.5276C14.8928 70.6347 14.877 76.7418 14.877 82.835L14.8875 85.4913ZM12.2538 73.6537C12.2538 70.3514 12.2538 67.0515 12.2538 63.7539C12.2538 62.4137 11.8245 61.8644 10.7948 61.861C8.76331 61.861 6.73275 61.861 4.70306 61.861C3.67593 61.861 3.24663 62.4137 3.24663 63.7539C3.24663 70.3515 3.24663 76.9502 3.24663 83.55C3.24663 84.9317 3.66803 85.4878 4.73994 85.4913H10.6973C11.8588 85.4913 12.2564 84.9732 12.2564 83.4637C12.2494 80.1822 12.245 76.9064 12.2433 73.6364L12.2538 73.6537ZM30.7607 5.64013C31.5218 8.49677 32.2276 11.198 32.9782 13.875C33.0544 14.0099 33.1531 14.1201 33.2668 14.1974C33.3804 14.2746 33.506 14.3167 33.634 14.3206C36.5916 14.3482 39.5492 14.3206 42.5069 14.3517C42.6772 14.3818 42.8497 14.3241 42.9882 14.1907C43.1267 14.0574 43.2204 13.8587 43.2496 13.6367C43.8737 11.2014 44.5269 8.78002 45.1643 6.35171C45.2117 6.13111 45.2503 5.90743 45.2801 5.68159C43.3523 6.78348 41.7168 6.41042 40.2129 4.59696C39.6391 3.87253 38.8755 3.46383 38.0791 3.45484C37.2827 3.44584 36.5138 3.83724 35.9306 4.54861C34.4004 6.3897 32.7544 6.77657 30.7501 5.62286L30.7607 5.64013Z" fill="#1A237E"/>
<path d="M38.1931 35.054C38.2049 36.4295 37.7742 37.1095 37.0831 37.156C36.392 37.2026 35.8997 36.6282 35.8263 35.6533C35.7482 34.7218 35.353 34.2095 34.6927 33.9735C34.3862 33.8631 34.0621 33.8683 33.7577 33.9886C33.4534 34.1089 33.1811 34.3393 32.9721 34.6535C32.8687 34.8047 32.7914 34.9833 32.7454 35.1772C32.6993 35.371 32.6856 35.5756 32.7051 35.7771C32.7247 35.9785 32.777 36.1721 32.8586 36.3447C32.9402 36.5172 33.0491 36.6648 33.178 36.7772C33.5601 37.0884 33.9952 37.2698 34.4442 37.3051C36.2713 37.4448 37.812 39.0656 38.1576 41.3011C38.4913 43.4746 37.5564 45.5921 35.8453 46.6291C35.6592 46.7635 35.5188 46.9854 35.4524 47.2501C35.2678 48.076 34.8252 48.5759 34.217 48.5542C33.6087 48.5325 33.2466 48.0388 33.0644 47.2253C32.9738 46.9391 32.805 46.7076 32.591 46.5764C31.2396 45.7101 30.397 44.3843 30.3118 42.3599C30.2692 41.3787 30.7047 40.6832 31.3627 40.6025C31.5262 40.5765 31.6921 40.5956 31.8498 40.6585C32.0074 40.7215 32.1532 40.8269 32.278 40.9681C32.4028 41.1092 32.5037 41.283 32.5743 41.4783C32.6449 41.6736 32.6837 41.8861 32.6881 42.1022C32.7031 42.4939 32.8159 42.8682 33.0093 43.1673C33.2026 43.4664 33.4657 43.6737 33.7578 43.7571C34.0606 43.8955 34.3882 43.9102 34.6975 43.7994C35.0068 43.6885 35.2832 43.4573 35.4903 43.1361C35.6154 42.9663 35.7074 42.7594 35.7584 42.533C35.8094 42.3065 35.818 42.0672 35.7834 41.8355C35.7487 41.6038 35.6719 41.3864 35.5595 41.202C35.4471 41.0176 35.3023 40.8716 35.1376 40.7764C34.7814 40.5586 34.3945 40.4402 34.0016 40.4286C32.262 40.3075 30.6882 38.6371 30.3592 36.5133C30.016 34.2902 30.9201 32.1664 32.6076 31.1449C32.817 31.009 32.9781 30.772 33.0573 30.4836C33.2348 29.6856 33.6347 29.195 34.2264 29.1826C34.5061 29.1595 34.7823 29.2739 35.0011 29.5036C35.2199 29.7332 35.3656 30.0616 35.4098 30.4246C35.4595 30.881 35.6323 31.0083 35.8973 31.1667C37.289 32.0112 38.0724 33.396 38.1931 35.054Z" fill="#1A237E"/>
<path d="M53.363 34.216C52.8915 33.3242 52.4837 32.4149 52.1644 31.543C51.8451 30.6712 51.6209 29.8552 51.5054 29.1444C51.39 28.4336 51.3857 27.843 51.4928 27.4083C51.5999 26.9735 51.8162 26.7039 52.1285 26.6156C52.7243 26.3891 53.6637 26.8793 54.7402 27.9784C55.8166 29.0775 56.9418 30.6953 57.8683 32.4761C58.7948 34.2568 59.4467 36.0546 59.6806 37.4738C59.9144 38.8931 59.7111 39.8177 59.1153 40.0441C58.8298 40.1805 58.4522 40.1366 58.0053 39.915C57.5583 39.6935 57.0511 39.2988 56.5141 38.7547C55.977 38.2105 55.4211 37.5281 54.8797 36.7482C54.3383 35.9684 53.8224 35.1071 53.363 34.216Z" fill="#1A237E"/>
</svg>
