<svg width="53" height="53" viewBox="0 0 53 53" fill="none" xmlns="http://www.w3.org/2000/svg">
<circle cx="26.5" cy="26.5" r="26.5" fill="black"/>
<path d="M20.804 35.9996H15.2954C14.7938 35.9996 14.3867 35.5844 14.3867 35.0729V30.9807C14.3867 30.7305 14.4867 30.4895 14.663 30.3153L17.3546 27.6613C17.7017 27.3184 18.2506 27.3129 18.6031 27.6483L21.4201 30.3135C21.6055 30.4895 21.7109 30.7342 21.7109 30.9918V35.0729C21.7109 35.5844 21.3038 35.9996 20.8022 35.9996H20.804Z" fill="white"/>
<path d="M29.4486 36.001H23.94C23.4384 36.001 23.0312 35.5859 23.0312 35.0743V27.09C23.0312 26.8398 23.1312 26.5989 23.3075 26.4247L25.9991 23.7707C26.3462 23.4278 26.8951 23.4222 27.2477 23.7577L30.0647 26.4228C30.25 26.5989 30.3554 26.8435 30.3554 27.1012V35.0743C30.3554 35.5859 29.9483 36.001 29.4467 36.001H29.4486Z" fill="white"/>
<path d="M38.0931 36.0011H32.5845C32.0829 36.0011 31.6758 35.5859 31.6758 35.0744V25.4221C31.6758 25.1719 31.7757 24.9309 31.952 24.7567L34.6436 22.1027C34.9908 21.7598 35.5396 21.7543 35.8922 22.0897L38.7092 24.7549C38.8946 24.9309 39 25.1756 39 25.4332V35.0744C39 35.5859 38.5929 36.0011 38.0913 36.0011H38.0931Z" fill="white"/>
<path d="M37.5017 18.7122C37.4908 19.6371 36.9274 20.4896 36.0641 20.8028C35.2009 21.1161 34.2049 20.8399 33.6215 20.106C33.0381 19.372 32.9891 18.3453 33.4598 17.5558C33.9305 16.7662 34.8592 16.3455 35.7443 16.5308C36.7638 16.744 37.489 17.6558 37.5017 18.7122C37.5053 19.0699 38.0506 19.0699 38.0469 18.7122C38.0324 17.552 37.3327 16.5179 36.2659 16.1064C35.199 15.695 33.9541 16.0378 33.238 16.9256C32.522 17.8134 32.3875 19.1385 32.9909 20.1505C33.5943 21.1624 34.741 21.6554 35.8606 21.4367C37.1291 21.1883 38.0324 20.0133 38.0488 18.7122C38.0524 18.3546 37.5072 18.3546 37.5035 18.7122H37.5017Z" fill="white"/>
<path d="M13.4705 28.6537C14.6537 27.5102 15.8386 26.3667 17.0218 25.2232C18.8883 23.4198 20.7547 21.6165 22.6212 19.8151C23.0356 19.4147 23.4463 19.0088 23.8662 18.6122C24.4387 18.0729 25.3274 18.0025 25.9453 18.5121C26.4796 18.9532 26.854 19.5241 27.5555 19.7205C28.2989 19.93 29.0749 19.6983 29.6256 19.1608C29.8019 18.9885 29.9781 18.8124 30.1544 18.6382C30.9632 17.8394 31.7719 17.0387 32.5789 16.2399L37.3078 11.5639L37.4005 11.4731C37.6531 11.2229 37.2678 10.83 37.0152 11.0802C35.6449 12.435 34.2745 13.7916 32.9042 15.1464L30.2271 17.793L29.4166 18.5937C29.1603 18.8476 28.9113 19.0793 28.5533 19.1831C28.088 19.3184 27.5773 19.2257 27.1866 18.9329C26.9558 18.7605 26.7559 18.5288 26.5505 18.3287C25.8999 17.6948 25.0239 17.4075 24.1588 17.7708C23.5881 18.0099 23.1301 18.5603 22.6885 18.9866C20.9056 20.7084 19.1227 22.4302 17.3398 24.1538C15.944 25.5012 14.5501 26.8486 13.1543 28.196L13.0834 28.2645C12.829 28.511 13.2143 28.9039 13.4687 28.6575L13.4705 28.6537Z" fill="white"/>
<path d="M34.3764 11.5834H37.257L36.9844 11.3053V14.1039C36.9844 14.4616 37.5296 14.4616 37.5296 14.1039V11.3053C37.5296 11.1552 37.4042 11.0273 37.257 11.0273H34.3764C34.0256 11.0273 34.0256 11.5834 34.3764 11.5834Z" fill="white"/>
<path d="M35.6447 17.6513C35.7102 17.7402 35.752 17.8347 35.7738 17.9385C35.7792 17.9626 35.7974 17.9534 35.8101 17.9534C35.9083 17.9534 36.0064 17.9534 36.1046 17.9534C36.1773 17.9534 36.1972 17.9738 36.1972 18.0497C36.1972 18.109 36.1972 18.1684 36.1972 18.2277C36.1972 18.2833 36.1754 18.3055 36.1191 18.3055C36.0191 18.3055 35.9192 18.3055 35.821 18.3055C35.7938 18.3055 35.7829 18.3111 35.7774 18.3389C35.7084 18.6817 35.4939 18.8838 35.174 18.9838C35.1013 19.0061 35.0268 19.019 34.9487 19.0339C35.0087 19.1006 35.0668 19.1636 35.1232 19.2285C35.3194 19.4546 35.5121 19.6844 35.6975 19.9198C35.7611 20.0013 35.8265 20.081 35.8919 20.1607C35.9101 20.183 35.9174 20.2071 35.9046 20.2349C35.8919 20.2627 35.8701 20.2756 35.8392 20.2756C35.7102 20.2756 35.5793 20.2756 35.4503 20.2756C35.4139 20.2756 35.3939 20.2552 35.374 20.233C35.2976 20.1403 35.2231 20.0458 35.1468 19.955C35.0214 19.8049 34.8942 19.6548 34.7669 19.5046C34.6379 19.3527 34.5052 19.2025 34.3707 19.0561C34.3489 19.0339 34.3398 19.0098 34.3398 18.9764C34.3417 18.8986 34.3398 18.8207 34.3398 18.7447C34.3398 18.6873 34.3635 18.6632 34.4198 18.6613C34.5434 18.6613 34.6688 18.6688 34.7924 18.6521C34.945 18.6335 35.0886 18.5946 35.1995 18.4742C35.2376 18.4334 35.2595 18.3852 35.2813 18.3352C35.2904 18.3129 35.2849 18.3055 35.2613 18.3055C35.1849 18.3055 35.1086 18.3055 35.0341 18.3055C34.8342 18.3055 34.6324 18.3055 34.4325 18.3055C34.358 18.3055 34.3417 18.287 34.3417 18.211C34.3417 18.1517 34.3417 18.0924 34.3417 18.0331C34.3417 17.9812 34.3635 17.9589 34.4125 17.9552C34.4325 17.9552 34.4507 17.9552 34.4707 17.9552C34.7179 17.9552 34.965 17.9552 35.2122 17.9552C35.2249 17.9552 35.2449 17.9626 35.2504 17.9497C35.2576 17.9348 35.2413 17.9219 35.2322 17.9107C35.1613 17.8107 35.0577 17.7662 34.9432 17.7421C34.7742 17.7069 34.6034 17.7198 34.4325 17.718C34.358 17.718 34.3417 17.6995 34.3417 17.6235C34.3417 17.5438 34.3417 17.4622 34.3417 17.3825C34.3417 17.3269 34.3635 17.3047 34.4198 17.3047C34.9868 17.3047 35.5539 17.3047 36.1191 17.3047C36.1663 17.3047 36.1918 17.3251 36.1936 17.3751C36.1954 17.4455 36.1954 17.516 36.1936 17.5864C36.1936 17.6364 36.1663 17.6568 36.11 17.6568C35.9683 17.6568 35.8283 17.6568 35.6866 17.6568C35.6756 17.6568 35.6629 17.6568 35.6447 17.6568V17.6513Z" fill="white"/>
</svg>
