<svg width="30" height="29" viewBox="0 0 30 29" fill="none" xmlns="http://www.w3.org/2000/svg">
<g clip-path="url(#clip0_1_3699)">
<path d="M22.1016 28.3339H9.32227C8.14388 28.3339 6.98334 28.3761 5.83619 28.0341C3.4236 27.3169 1.51317 25.3316 0.890493 22.9044C0.604821 21.794 0.669543 20.6415 0.669543 19.5045C0.669543 17.8168 0.669543 16.1312 0.669543 14.4435C0.669543 12.7558 0.669543 11.0814 0.669543 9.40033C0.669543 8.22781 0.613748 7.0575 0.939592 5.91385C1.62253 3.5044 3.58875 1.57018 6.01696 0.915071C7.13064 0.615278 8.27109 0.666354 9.41378 0.666354H14.3885C16.1561 0.666354 17.9259 0.666354 19.6935 0.666354C20.5617 0.666354 21.4321 0.646368 22.3003 0.668575C24.8557 0.732975 27.2214 2.20307 28.4489 4.42598C29.0292 5.47859 29.326 6.66 29.3305 7.85917C29.3305 8.12787 29.3305 8.39658 29.3305 8.66306V13.2066C29.3305 15.0031 29.3305 16.7975 29.3305 18.594C29.3305 19.4712 29.3394 20.3461 29.3305 21.2233C29.3014 23.7682 27.8709 26.1488 25.648 27.4035C24.5678 28.0142 23.347 28.3273 22.1039 28.3339C21.6731 28.3339 21.6731 29.0024 22.1039 29.0001C24.753 28.9868 27.2415 27.6389 28.7033 25.4426C29.4331 24.3456 29.8661 23.0709 29.9732 21.7629C30.0067 21.3721 29.9978 20.979 29.9978 20.586C29.9978 19.1247 29.9978 17.6613 29.9978 16.2001C29.9978 14.3525 29.9978 12.5049 29.9978 10.6572C29.9978 9.72455 30.0022 8.78964 29.9978 7.85695C29.9866 5.25874 28.6676 2.81376 26.5139 1.35033C25.4226 0.610837 24.1504 0.164478 22.8404 0.0356779C22.4319 -0.00429456 22.0235 0.000146823 21.6151 0.000146823H8.07692C5.99241 0.000146823 4.00164 0.721871 2.47731 2.15644C0.868174 3.66651 0 5.77394 0 7.96354C0 9.13385 0 10.3042 0 11.4745V17.1217C0 18.3919 0 19.6621 0 20.9324C0 22.2026 0.678471 24.9096 2.06666 26.4308C3.57982 28.0874 5.74022 29.0001 7.98096 29.0024C9.0924 29.0024 10.2038 29.0024 11.3153 29.0024H22.1016C22.5324 29.0024 22.5324 28.3362 22.1016 28.3362V28.3339Z" fill="#221F20"/>
<path d="M11.8421 7.08625H9.44062V4.85002C9.44062 4.44585 9.11032 4.11719 8.70413 4.11719H7.91183C7.50565 4.11719 7.17534 4.44585 7.17534 4.85002V7.08625H4.9279C4.52171 7.08625 4.19141 7.41491 4.19141 7.81908V8.60742C4.19141 9.01159 4.52171 9.34025 4.9279 9.34025H7.17534V11.7297C7.17534 12.1339 7.50565 12.4625 7.91183 12.4625H8.70413C9.11032 12.4625 9.44062 12.1339 9.44062 11.7297V9.34025H11.8421C12.2482 9.34025 12.5786 9.01159 12.5786 8.60742V7.81908C12.5786 7.41491 12.2482 7.08625 11.8421 7.08625Z" fill="#1A237E"/>
<path d="M11.364 21.5241C10.8909 21.0622 10.4177 20.6003 9.94681 20.1406V20.6114C10.2325 20.3205 10.5182 20.0318 10.8038 19.7409C11.1386 19.4011 11.5537 19.0813 11.5135 18.5528C11.489 18.233 11.2993 18.0198 11.0828 17.8089C10.8998 17.629 10.7212 17.4158 10.478 17.3137C9.89994 17.0694 9.50045 17.4491 9.1322 17.8222C8.79966 18.1597 8.46712 18.4973 8.13458 18.8326H8.60772C8.31536 18.5484 8.02522 18.2641 7.73285 17.9799C7.39139 17.6468 7.07001 17.2337 6.53883 17.2737C6.21745 17.2981 6.0032 17.4869 5.79118 17.7023C5.6104 17.8844 5.39615 18.062 5.29348 18.3041C5.04798 18.8792 5.42962 19.2767 5.80457 19.6432C6.1438 19.974 6.48304 20.3049 6.82004 20.6358V20.165C6.52544 20.4626 6.23084 20.7624 5.93625 21.06C5.60147 21.3997 5.13056 21.7484 5.15734 22.2769C5.17297 22.6122 5.36713 22.8365 5.59478 23.0564C5.78895 23.2451 5.97642 23.4739 6.23977 23.5693C6.84459 23.7914 7.2307 23.3606 7.60787 22.9786L8.63227 21.9394H8.15913C8.63897 22.4079 9.09872 22.9098 9.60534 23.3495C9.87539 23.5827 10.2436 23.6604 10.5806 23.5294C10.815 23.4405 10.9712 23.2562 11.1408 23.083C11.3104 22.9098 11.4957 22.7499 11.5805 22.519C11.7144 22.1614 11.6117 21.7995 11.3618 21.5219C11.0739 21.2021 10.6007 21.6751 10.8886 21.9927C11.1498 22.2813 10.6655 22.6278 10.4713 22.8099C10.2392 23.0319 10.0673 22.8698 9.88878 22.6966L8.63227 21.4686C8.50506 21.3442 8.28634 21.3398 8.15913 21.4686L7.4628 22.1748C7.23293 22.4079 7.00751 22.7077 6.74193 22.9009C6.52768 23.0564 6.36922 22.8787 6.22192 22.7344C6.10363 22.6189 5.8559 22.4523 5.82912 22.2747C5.80457 22.1192 5.92732 22.0193 6.02552 21.9216L6.44956 21.493C6.73077 21.2065 7.01421 20.9201 7.29542 20.6358C7.4204 20.5092 7.42486 20.2916 7.29542 20.165C7.06777 19.943 6.84013 19.7209 6.61248 19.4988L6.15496 19.0525C6.08354 18.9814 5.98088 18.9081 5.92732 18.8215C5.79787 18.615 5.98311 18.464 6.11479 18.3285C6.22638 18.2153 6.36698 18.0087 6.52321 17.951C6.79996 17.8488 7.15258 18.3485 7.3155 18.5062C7.58779 18.7727 7.86007 19.0391 8.13235 19.3034C8.25956 19.4278 8.47828 19.4322 8.60549 19.3034C8.82867 19.0769 9.05185 18.8504 9.27504 18.6239L9.72363 18.1686C9.79505 18.0976 9.8687 17.9954 9.95574 17.9421C10.1633 17.8133 10.3151 17.9976 10.4512 18.1287C10.565 18.2397 10.7726 18.3796 10.8306 18.535C10.9333 18.8104 10.4311 19.1613 10.2727 19.3234C10.0048 19.5943 9.73702 19.8652 9.47143 20.1362C9.34645 20.2627 9.34199 20.4804 9.47143 20.6069C9.94458 21.0688 10.4177 21.5308 10.8886 21.9904C11.1966 22.2902 11.6698 21.8194 11.3618 21.5196L11.364 21.5241Z" fill="#221F20"/>
<path d="M24.6105 8.77196C22.7246 8.77196 20.832 8.82526 18.9484 8.77196C18.7475 8.7653 18.6337 8.67203 18.618 8.46328C18.6024 8.26564 18.5511 7.88146 18.6582 7.70381C18.7944 7.48174 19.3166 7.57279 19.5309 7.57279H23.1933C23.6463 7.57279 24.1016 7.55946 24.5547 7.57279C24.7801 7.57945 24.8827 7.70825 24.885 7.9281C24.8894 8.1857 24.9943 8.74753 24.6105 8.76974C24.182 8.79639 24.1797 9.4626 24.6105 9.43595C25.155 9.40264 25.5344 9.01624 25.5545 8.47439C25.5657 8.18126 25.5969 7.81928 25.501 7.53726C25.2912 6.92435 24.7087 6.90436 24.1753 6.90436H20.1178C19.7161 6.90436 19.3121 6.89104 18.9104 6.90436C18.5087 6.91768 18.1159 7.15974 17.9909 7.57057C17.9061 7.84815 17.9373 8.20346 17.9485 8.48993C17.9708 9.01846 18.3592 9.41374 18.8926 9.43595C18.9885 9.44039 19.0867 9.43595 19.1827 9.43595H24.6105C25.0412 9.43595 25.0412 8.76974 24.6105 8.76974V8.77196Z" fill="#221F20"/>
<path d="M25.1183 21.0215H18.3827C17.9858 21.0215 17.6641 21.3416 17.6641 21.7365V22.5027C17.6641 22.8976 17.9858 23.2177 18.3827 23.2177H25.1183C25.5152 23.2177 25.837 22.8976 25.837 22.5027V21.7365C25.837 21.3416 25.5152 21.0215 25.1183 21.0215Z" fill="#1A237E"/>
<path d="M25.1183 17.2832H18.3827C17.9858 17.2832 17.6641 17.6033 17.6641 17.9983V18.7644C17.6641 19.1593 17.9858 19.4795 18.3827 19.4795H25.1183C25.5152 19.4795 25.837 19.1593 25.837 18.7644V17.9983C25.837 17.6033 25.5152 17.2832 25.1183 17.2832Z" fill="#1A237E"/>
<path d="M14.666 2.76285V12.9691C14.666 13.3977 15.3356 13.3977 15.3356 12.9691V2.76285C15.3356 2.33426 14.666 2.33426 14.666 2.76285Z" fill="#221F20"/>
<path d="M14.666 15.4992V25.7055C14.666 26.1341 15.3356 26.1341 15.3356 25.7055V15.4992C15.3356 15.0706 14.666 15.0706 14.666 15.4992Z" fill="#221F20"/>
<path d="M3.54766 14.4709H13.5886C14.0193 14.4709 14.0193 13.8047 13.5886 13.8047H3.54766C3.11692 13.8047 3.11692 14.4709 3.54766 14.4709Z" fill="#221F20"/>
<path d="M16.45 14.4709H26.4909C26.9217 14.4709 26.9217 13.8047 26.4909 13.8047H16.45C16.0193 13.8047 16.0193 14.4709 16.45 14.4709Z" fill="#221F20"/>
</g>
<defs>
<clipPath id="clip0_1_3699">
<rect width="30" height="29" fill="white"/>
</clipPath>
</defs>
</svg>
