<svg width="21" height="22" viewBox="0 0 21 22" fill="none" xmlns="http://www.w3.org/2000/svg">
<g clip-path="url(#clip0_1_3693)">
<path d="M0.477187 18.27V0.965047C0.477187 0.736806 0.506581 0.487119 0.477187 0.260409C0.477187 0.251219 0.477187 0.238964 0.477187 0.229773L0.245125 0.459546H5.50209L5.27776 0.291046C5.56552 1.14733 5.85327 2.00209 6.14258 2.85838C6.17506 2.95488 6.26015 3.02688 6.3669 3.02688H17.4579L17.2258 2.7971V6.00933C17.2258 6.30497 17.6899 6.30497 17.6899 6.00933V2.7971C17.6899 2.67303 17.5832 2.56733 17.4579 2.56733H6.3669L6.59123 2.73583C6.30347 1.87954 6.01572 1.02479 5.72641 0.1685C5.69392 0.0719956 5.60884 0 5.50209 0H0.245125C0.119812 0 0.0130642 0.105696 0.0130642 0.229773V16.0489C0.0130642 16.7765 -0.0163302 17.5118 0.0130642 18.2394C0.0130642 18.2501 0.0130642 18.2593 0.0130642 18.27C0.0130642 18.5657 0.477187 18.5657 0.477187 18.27Z" fill="#221F20"/>
<path d="M4.33709 6.37046L0.760253 17.4915H0.613281L3.79097 4.76511C3.86678 4.46334 4.13907 4.25195 4.45312 4.25195H19.3561C19.8032 4.25195 20.1296 4.67014 20.0167 5.09905L19.698 6.30919L4.33709 6.37199V6.37046Z" fill="#1A237E"/>
<path d="M16.7519 18.1039H1.09861C0.892849 18.1039 0.666976 18.0778 0.461215 18.1039C0.451932 18.1039 0.441103 18.1039 0.43182 18.1039L0.656146 18.3949C1.11099 17.0607 1.56428 15.725 2.01912 14.3907C2.73851 12.2799 3.45635 10.169 4.17574 8.0582C4.33973 7.57414 4.50527 7.09009 4.66926 6.60603L4.44493 6.77453H20.0998C20.3055 6.77453 20.5314 6.80058 20.7372 6.77453C20.7465 6.77453 20.7573 6.77453 20.7666 6.77453L20.5423 6.48349C20.0874 7.8177 19.6341 9.15345 19.1793 10.4877C18.4599 12.5985 17.742 14.7094 17.0227 16.8202C16.8587 17.3043 16.6931 17.7883 16.5291 18.2724C16.4332 18.5527 16.8819 18.6737 16.9762 18.3949C17.4311 17.0607 17.8844 15.725 18.3392 14.3907C19.0586 12.2799 19.7764 10.169 20.4958 8.0582C20.6598 7.57414 20.8254 7.09009 20.9894 6.60603C21.0373 6.46358 20.9089 6.31499 20.765 6.31499H6.46077C5.80017 6.31499 5.13338 6.28742 4.47433 6.31499C4.46505 6.31499 4.45576 6.31499 4.44493 6.31499C4.33819 6.31499 4.25464 6.38698 4.22061 6.48349C3.76577 7.8177 3.31247 9.15345 2.85763 10.4877C2.13824 12.5985 1.4204 14.7094 0.701011 16.8202C0.537021 17.3043 0.371484 17.7883 0.207494 18.2724C0.159535 18.4148 0.287942 18.5634 0.43182 18.5634H14.7376C15.3982 18.5634 16.065 18.591 16.7241 18.5634C16.7334 18.5634 16.7426 18.5634 16.7535 18.5634C17.052 18.5634 17.052 18.1039 16.7535 18.1039H16.7519Z" fill="#221F20"/>
<path d="M15.0345 11.278C14.0491 9.07218 11.436 8.07037 9.20825 9.04461C6.98046 10.0204 5.96868 12.6076 6.95262 14.8134C7.82671 16.7711 9.98334 17.7775 12.0146 17.2981L14.1125 21.9992L15.4801 21.4003L13.3884 16.7144C15.18 15.5686 15.9226 13.2694 15.033 11.2765L15.0345 11.278ZM12.2931 15.9577C10.6718 16.6669 8.76888 15.9378 8.05259 14.3325C7.33629 12.7271 8.0727 10.843 9.69403 10.1337C11.3154 9.4245 13.2183 10.1536 13.9346 11.759C14.6509 13.3643 13.9145 15.2485 12.2931 15.9577Z" fill="#1A237E"/>
</g>
<defs>
<clipPath id="clip0_1_3693">
<rect width="21" height="22" fill="white"/>
</clipPath>
</defs>
</svg>
