<svg width="21" height="21" viewBox="0 0 21 21" fill="none" xmlns="http://www.w3.org/2000/svg">
<path d="M19.7091 10.1424C19.7039 12.1356 19.0908 14.0822 17.9456 15.7106C16.8004 17.3391 15.2281 18.5285 13.4147 19.1906C11.5239 19.8821 9.43492 19.9616 7.49754 19.4119C5.62387 18.8812 3.94481 17.7679 2.70316 16.2638C1.45635 14.7529 0.693446 12.8513 0.545344 10.8961C0.397242 8.94089 0.862214 6.88368 1.89376 5.16704C2.92531 3.45039 4.396 2.16767 6.15773 1.36207C7.97629 0.530546 10.0635 0.300623 12.0198 0.701692C13.9762 1.10276 15.6845 2.06567 17.0329 3.47287C18.3917 4.89217 19.2889 6.71599 19.5937 8.6591C19.6712 9.15006 19.7039 9.64621 19.7056 10.1424C19.7056 10.476 20.224 10.476 20.2223 10.1424C20.2154 8.04713 19.5713 5.97436 18.3555 4.26636C17.1655 2.5964 15.4968 1.31194 13.5766 0.604882C11.6565 -0.102174 9.3867 -0.202441 7.35805 0.373231C5.39655 0.929886 3.61416 2.09679 2.31913 3.67686C1.02409 5.25693 0.194032 7.27611 0.0304306 9.35924C-0.133171 11.4424 0.366244 13.5826 1.44773 15.3805C2.52923 17.1784 4.07397 18.5423 5.92352 19.3842C7.86091 20.2642 10.0446 20.5114 12.13 20.0913C14.138 19.6868 16.0048 18.6461 17.4187 17.1593C18.8308 15.6761 19.7849 13.7658 20.0983 11.7345C20.1792 11.2073 20.2223 10.6765 20.224 10.1424C20.224 9.80872 19.7091 9.80872 19.7074 10.1424H19.7091Z" fill="#221F20"/>
<path d="M11.7745 5.58484C12.0329 5.9375 12.2016 6.30746 12.2877 6.71371C12.3084 6.81052 12.3807 6.77422 12.4324 6.77422C12.8233 6.77767 13.2142 6.77422 13.6051 6.77595C13.8945 6.77595 13.9737 6.85893 13.9737 7.15108C13.9737 7.38273 13.9737 7.61611 13.9737 7.84777C13.972 8.06905 13.8841 8.15548 13.6603 8.15548C13.2642 8.15548 12.8664 8.16067 12.4703 8.15375C12.3635 8.15203 12.3204 8.17796 12.2963 8.2886C12.0191 9.63183 11.1632 10.4236 9.89226 10.8212C9.60294 10.9111 9.30674 10.956 8.99503 11.0183C9.23268 11.2811 9.46517 11.53 9.68905 11.7858C10.4709 12.6744 11.239 13.5751 11.9812 14.4965C12.2361 14.8146 12.4944 15.1275 12.7544 15.4421C12.8285 15.532 12.8577 15.6237 12.8044 15.7308C12.751 15.838 12.6683 15.8916 12.5409 15.8899C12.0225 15.8847 11.5059 15.883 10.9875 15.8899C10.8446 15.8916 10.7636 15.8121 10.6862 15.7205C10.3813 15.3574 10.0851 14.9892 9.7786 14.6296C9.27574 14.0384 8.76943 13.4506 8.26485 12.8611C7.75338 12.263 7.22469 11.6787 6.68911 11.1013C6.60473 11.0114 6.56512 10.9163 6.56857 10.7901C6.57718 10.4858 6.57029 10.1816 6.57201 9.87731C6.57201 9.65085 6.66673 9.55404 6.88888 9.55058C7.38313 9.54366 7.88082 9.57824 8.37335 9.516C8.97953 9.43994 9.55472 9.28781 9.99558 8.81759C10.1454 8.65855 10.2384 8.46839 10.3211 8.26958C10.3572 8.18314 10.3366 8.15203 10.2418 8.15375C9.93875 8.15721 9.63566 8.15375 9.33257 8.15375C8.5335 8.15375 7.73444 8.15375 6.9371 8.15375C6.64089 8.15375 6.57373 8.0846 6.57201 7.78035C6.57201 7.54869 6.57201 7.31531 6.57201 7.08366C6.57201 6.8814 6.65467 6.78977 6.85444 6.77595C6.93193 6.77076 7.00943 6.77422 7.0852 6.77422C8.07198 6.77422 9.05703 6.77422 10.0438 6.77422C10.0955 6.77422 10.1712 6.80188 10.1953 6.75001C10.2212 6.69469 10.1592 6.64456 10.1247 6.59616C9.84059 6.20027 9.42901 6.0274 8.97437 5.93232C8.30102 5.79229 7.61734 5.84242 6.9371 5.83378C6.63917 5.83032 6.57201 5.76463 6.57201 5.4621C6.57201 5.14747 6.57201 4.83111 6.57201 4.51648C6.57201 4.29693 6.66156 4.20703 6.88371 4.20703C9.14141 4.20703 11.4008 4.20703 13.6585 4.20703C13.8497 4.20703 13.9496 4.29001 13.9565 4.48017C13.9668 4.75677 13.9651 5.03337 13.9565 5.30997C13.9513 5.50532 13.848 5.58657 13.6224 5.58657C13.061 5.58657 12.4978 5.58311 11.9364 5.58311C11.8899 5.58311 11.8434 5.58311 11.7711 5.58311L11.7745 5.58484Z" fill="#1A237E"/>
</svg>
