<svg width="16" height="16" viewBox="0 0 16 16" fill="none" xmlns="http://www.w3.org/2000/svg">
<path d="M8 16C6.41775 16 4.87103 15.5308 3.55544 14.6518C2.23984 13.7727 1.21446 12.5233 0.608964 11.0615C0.00346251 9.59966 -0.154959 7.99113 0.153723 6.43928C0.462405 4.88743 1.22432 3.46197 2.34314 2.34315C3.46196 1.22433 4.88742 0.462403 6.43927 0.153721C7.99112 -0.15496 9.59965 0.00346629 11.0615 0.608967C12.5233 1.21447 13.7727 2.23985 14.6518 3.55544C15.5308 4.87104 16 6.41775 16 8C16 10.1217 15.1572 12.1566 13.6569 13.6569C12.1566 15.1571 10.1217 16 8 16ZM8 1.33334C6.68146 1.33334 5.39253 1.72433 4.2962 2.45687C3.19987 3.18942 2.34538 4.23061 1.8408 5.44878C1.33621 6.66695 1.20419 8.0074 1.46142 9.3006C1.71866 10.5938 2.3536 11.7817 3.28595 12.714C4.2183 13.6464 5.40619 14.2813 6.6994 14.5386C7.99261 14.7958 9.33305 14.6638 10.5512 14.1592C11.7694 13.6546 12.8106 12.8001 13.5431 11.7038C14.2757 10.6075 14.6667 9.31855 14.6667 8C14.6667 6.23189 13.9643 4.5362 12.714 3.28596C11.4638 2.03572 9.76811 1.33334 8 1.33334V1.33334Z" fill="#1A237E"/>
<path d="M6.21328 12L4 9.33813L4.84117 8.31655L6.21328 9.97122L11.1588 4L12 5.02158L6.21328 12Z" fill="#1A237E"/>
</svg>
