<svg width="69" height="89" viewBox="0 0 69 89" fill="none" xmlns="http://www.w3.org/2000/svg">
<path d="M10.9565 88.7027C10.5388 88.4922 10.1303 88.2536 9.73295 87.9878C8.32754 86.9259 7.71209 85.3042 7.71209 83.2798C7.71209 81.4036 7.73046 79.5273 7.69555 77.6534C7.68375 77.2054 7.56887 76.7714 7.36487 76.4041C5.67837 73.5909 4.79287 70.4653 4.86452 66.9187C4.90677 64.5821 4.91229 62.2431 4.86452 59.9065C4.79838 56.8017 5.1897 53.8751 6.84313 51.1521C6.21299 51.1521 5.72982 51.1521 5.24665 51.1521C4.62753 51.1521 4.00841 51.1683 3.39113 51.1244C2.0298 51.0272 0.819134 49.7108 0.655628 48.022C0.560103 46.9921 0.560103 45.9517 0.655628 44.9219C0.795251 43.3949 1.90489 41.9397 3.10087 41.8171C4.31036 41.6848 5.52709 41.6972 6.73473 41.8541C8.09973 42.0439 8.92094 42.8212 10.3925 44.7854C10.5046 44.5147 10.6111 44.2671 10.7085 44.015C12.1966 40.1236 13.6479 36.2138 15.1782 32.3456C16.3687 29.3172 18.4208 27.9985 21.0442 27.9893C25.0547 27.9777 29.0671 27.9893 33.0775 27.9893H33.9667C32.2527 21.0811 32.8755 14.6727 36.1566 8.81492C38.5155 4.60202 41.7452 1.87439 45.7097 0.618158C53.6095 -1.88737 61.827 3.41981 65.0622 12.9862C68.426 22.9343 65.2771 34.9437 56.7436 40.1213C57.3719 41.7015 57.9984 43.2816 58.6671 44.9658L59.0456 44.3828C60.0101 42.9068 61.2373 42.0415 62.7621 41.9236C63.5833 41.8611 64.4155 41.8541 65.2331 41.8588C65.5542 41.861 65.8734 41.921 66.181 42.0369C67.9116 42.7009 68.7053 44.9612 68.3231 48.0798C68.0861 50 66.8204 51.2863 65.1522 51.2909C64.1234 51.2909 63.0946 51.2909 61.9942 51.2909C62.0366 51.4363 62.0882 51.5771 62.1485 51.712C63.271 53.7201 63.9305 55.948 63.9599 58.4027C63.9967 61.8058 63.9967 65.2113 63.925 68.6145C63.8626 71.5365 62.9274 74.0767 61.5202 76.374C61.2978 76.7544 61.17 77.2093 61.1528 77.6811C61.1123 79.532 61.1417 81.3828 61.1344 83.2197C61.1344 85.9427 60.0946 87.7033 58.0223 88.5593C57.9627 88.5969 57.9081 88.6461 57.8606 88.705H51.798C51.7512 88.6455 51.6973 88.5955 51.6382 88.557C49.5292 87.6778 48.5316 85.9496 48.5242 83.1457C48.5242 82.4377 48.5242 81.7298 48.5242 80.9918H20.2984C20.2984 81.9172 20.3241 82.8056 20.2984 83.6893C20.2341 85.5401 19.58 87.0023 18.3161 87.9739C17.8964 88.255 17.4618 88.4993 17.0154 88.705L10.9565 88.7027ZM34.5913 51.7351C26.4087 51.7351 18.2267 51.729 10.0453 51.7166C9.77519 51.6958 9.50532 51.7615 9.26085 51.9076C9.01638 52.0536 8.80526 52.2752 8.6472 52.5518C7.53582 54.3012 6.94044 56.4818 6.96254 58.7219C6.96254 61.5213 6.93865 64.3206 6.97356 67.12C6.98992 68.0693 7.07851 69.0145 7.23811 69.9425C7.87376 73.7436 10.5982 78.322 15.1764 78.0212C17.234 77.8847 19.3026 77.9981 21.3639 77.9981C32.2753 77.9981 43.1855 77.9981 54.0945 77.9981C55.6303 77.9981 57.0339 77.5747 58.3052 76.4666C61.0425 74.0698 61.9501 70.5301 62.0842 66.5833C62.1724 63.9921 62.1062 61.3917 62.0989 58.7937C62.1291 56.4933 61.507 54.2548 60.3444 52.4801C60.1995 52.2289 60.0073 52.027 59.7851 51.8925C59.5628 51.7581 59.3176 51.6952 59.0713 51.7097C50.9131 51.739 42.7532 51.7475 34.5913 51.7351ZM35.385 20.9331C35.3685 30.8997 41.7874 39.0085 49.7367 39.0664C57.6365 39.1219 64.1951 30.9043 64.1914 20.9377C64.1877 10.9711 57.675 2.83912 49.7184 2.79285C41.8334 2.74658 35.4052 10.8809 35.3887 20.9331H35.385ZM54.6272 40.9357C51.9916 42.0025 49.1815 42.1922 46.4703 41.4863C41.5541 40.2216 37.8186 36.8577 35.2637 31.3948C35.1913 31.2486 35.0948 31.1238 34.9806 31.0288C34.8665 30.9338 34.7375 30.8708 34.6024 30.8442C29.8589 30.8187 25.1135 30.7909 20.37 30.858C18.915 30.8789 17.8256 31.8806 17.1422 33.5163C16.9584 33.9489 16.817 34.407 16.648 34.8465C14.8402 39.5568 13.03 44.2702 11.2174 48.9867H57.7394L54.6272 40.9357ZM18.1618 80.7142C15.3032 80.6401 12.4666 81.1236 9.84685 79.0068C9.84685 80.5962 9.83583 81.975 9.84685 83.3516C9.86155 84.8322 10.6295 85.8756 11.8108 85.9172C13.2805 85.9704 14.7502 85.9658 16.2199 85.9172C17.3369 85.8848 18.1085 84.9016 18.1618 83.5043C18.1893 82.6182 18.1618 81.7298 18.1618 80.7142ZM59.1007 79.1572C56.4883 81.2833 53.6223 80.7442 50.8005 80.8506C50.8005 81.7992 50.7747 82.6297 50.8005 83.458C50.8537 84.9155 51.6051 85.8825 52.7625 85.9196C54.2323 85.9658 55.691 85.9612 57.1533 85.9196C58.1527 85.8918 59.0254 85.0057 59.0768 83.8767C59.1521 82.3706 59.1007 80.853 59.1007 79.1572ZM6.02927 48.3597C6.80822 48.3597 7.58901 48.3759 8.36795 48.3597C8.96686 48.3435 9.22222 47.7397 8.93563 47.0757C8.07952 45.0931 6.74943 44.3389 4.96924 44.3342C2.60116 44.3342 2.80875 44.7854 2.8161 47.196C2.8161 47.9849 3.15414 48.3528 3.76039 48.3528C4.51546 48.3644 5.27237 48.3574 6.02927 48.3597ZM62.8172 48.3597C63.5723 48.3597 64.3273 48.3597 65.0824 48.3597C65.8724 48.3597 66.1314 48.0104 66.1443 46.9994C66.1443 46.5112 66.1443 46.0208 66.1443 45.5326C66.1443 44.79 65.8136 44.4175 65.257 44.3759C64.8013 44.3388 64.3384 44.3967 63.8846 44.3597C62.1393 44.2116 60.9066 45.1879 60.0615 47.0595C59.7308 47.7929 59.9513 48.3435 60.6237 48.3597C61.3548 48.3736 62.086 48.3597 62.8172 48.3597Z" fill="#1A237E"/>
<path d="M52.2737 66.0167C50.804 66.0167 49.3343 66.0861 47.8829 65.9912C46.8266 65.9241 46.3214 65.0658 46.3342 63.7217C46.3618 61.0519 47.6698 59.0391 49.7936 58.4376C51.6656 57.9078 53.5468 57.4243 55.4171 56.8829C57.4379 56.2976 59.0399 57.9726 58.8305 60.3532C58.7533 61.237 58.8305 62.1415 58.8158 63.0345C58.7974 64.7789 58.1048 65.8663 56.7343 65.9773C55.2536 66.0953 53.7618 66.0028 52.2755 66.0028L52.2737 66.0167ZM48.6692 63.4394H50.0967C52.0624 63.4394 54.0282 63.4255 55.9939 63.4001C56.286 63.4001 56.6865 63.5134 56.6847 62.8657C56.6847 61.9171 56.7086 60.964 56.6516 60.0201C56.6406 59.8257 56.2842 59.4741 56.1409 59.5111C54.087 60.0385 52.0367 60.5915 49.9975 61.2023C49.2075 61.4382 48.7372 62.3081 48.6692 63.4394Z" fill="#1A237E"/>
<path d="M17.0556 66.4025C15.3912 66.2753 13.7157 66.2614 12.0678 65.9838C10.6624 65.7524 10.1498 64.7854 10.1424 62.9762C10.1424 61.9953 10.1296 61.0144 10.1424 60.0358C10.1755 57.9027 11.4854 56.4406 13.1498 56.8362C15.303 57.3498 17.4506 57.9282 19.5688 58.6292C21.4225 59.2445 22.692 61.6506 22.6185 64.096C22.5854 65.3036 22.0673 66.0879 21.0367 66.1619C19.7139 66.2545 18.3839 66.1828 17.0574 66.1828L17.0556 66.4025ZM20.4598 63.321C20.21 61.9884 19.7066 61.2573 18.8064 61.0074C16.8737 60.4522 14.9282 59.9617 12.9955 59.4019C12.3985 59.2307 12.2607 59.536 12.2607 60.1861C12.291 60.9337 12.291 61.6827 12.2607 62.4302C12.2111 63.1844 12.4168 63.4389 13.0231 63.4297C15.2626 63.395 17.502 63.4297 19.7433 63.4112C19.9638 63.4042 20.1843 63.3557 20.4598 63.321Z" fill="#1A237E"/>
<path d="M34.5494 64.8422C36.8397 64.8422 39.1306 64.8422 41.4221 64.8422C41.6732 64.8377 41.9238 64.8672 42.1698 64.9301C42.3986 64.9856 42.6041 65.1422 42.7493 65.3717C42.8945 65.6012 42.9698 65.8885 42.9617 66.1817C42.9897 66.4898 42.9281 66.8002 42.7882 67.0555C42.6483 67.3107 42.4398 67.4934 42.2011 67.5698C41.9123 67.66 41.6147 67.6981 41.3174 67.6832C36.7601 67.6832 32.2015 67.6832 27.6417 67.6832C26.5082 67.6832 25.9883 67.2505 25.9883 66.2951C25.9883 65.3396 26.5578 64.8398 27.6785 64.8398L34.5494 64.8422Z" fill="#1A237E"/>
<path d="M34.4454 73.3195C32.0406 73.3195 29.6358 73.3195 27.2291 73.3195C26.2205 73.3195 25.6234 72.1789 26.1801 71.2628C26.3264 71.0574 26.5035 70.8903 26.7012 70.7713C26.8988 70.6522 27.1132 70.5833 27.332 70.5687C29.577 70.5016 31.822 70.5363 34.067 70.5363C36.6096 70.5363 39.1522 70.5062 41.6929 70.5687C41.9074 70.591 42.116 70.6687 42.3056 70.7968C42.4952 70.925 42.6619 71.1009 42.7952 71.3137C42.9661 71.6329 42.9091 72.401 42.7052 72.7157C42.4774 73.0673 41.9703 73.2917 41.5845 73.3009C39.211 73.3449 36.8282 73.3195 34.4454 73.3195Z" fill="#1A237E"/>
<path d="M50.793 11.6411C50.793 14.267 50.793 16.8049 50.8077 19.3405C50.828 19.4673 50.8719 19.5863 50.9357 19.6876C50.9996 19.7889 51.0816 19.8698 51.1751 19.9235C53.7747 21.1034 55.1837 23.3938 55.1874 26.4823C55.1911 29.5708 53.6883 31.963 51.0888 33.0642L50.7948 33.1799C50.7948 33.6241 50.7948 34.1053 50.7948 34.5865C50.7764 35.7201 50.4053 36.324 49.7182 36.3494C49.0311 36.3749 48.5608 35.6831 48.5461 34.5888C48.5461 34.1261 48.5461 33.6634 48.5461 33.1707C47.3636 32.8673 46.2907 32.0907 45.4873 30.9566C44.7021 29.8131 44.2355 28.3774 44.159 26.8687C44.0892 25.8739 44.4346 25.2353 45.0666 25.1312C45.8015 25.0086 46.3158 25.5014 46.3857 26.561C46.4922 28.1665 47.0654 29.3372 48.2228 30.0312C48.3146 30.0741 48.4093 30.1066 48.5057 30.1284C48.5204 29.9456 48.5406 29.8091 48.5406 29.6657C48.5406 27.1579 48.5406 24.6477 48.5406 22.119C48.1126 21.9247 47.6974 21.7766 47.3097 21.5568C46.3444 21.0075 45.5292 20.1117 44.9661 18.9817C44.4031 17.8516 44.1172 16.5376 44.1443 15.204C44.1777 13.825 44.5487 12.4928 45.2064 11.3896C45.8641 10.2863 46.7765 9.46595 47.8186 9.04076C48.4231 8.78859 48.6159 8.44388 48.5425 7.69893C48.5103 7.32675 48.529 6.95039 48.5976 6.58613C48.717 5.90596 49.0863 5.57049 49.6392 5.57049C49.8821 5.55303 50.1222 5.64318 50.3179 5.82531C50.5135 6.00744 50.6523 6.27006 50.7103 6.56762C50.7414 6.64568 50.756 6.73256 50.7525 6.81979C50.488 8.40455 51.2559 8.85568 52.2553 9.42943C54.109 10.4913 55.0239 12.5226 55.1599 15.086C55.2131 16.1132 54.831 16.7471 54.1476 16.8026C53.4917 16.8535 52.9828 16.2497 52.9388 15.2734C52.8708 13.7742 52.3509 12.6383 51.3294 11.8656C51.2502 11.8074 51.1673 11.7579 51.0814 11.7175C50.9864 11.6855 50.8901 11.66 50.793 11.6411ZM48.5039 11.662C47.8692 11.9386 47.322 12.4649 46.9429 13.163C46.5638 13.8612 46.373 14.6943 46.3985 15.5394C46.4371 17.1589 47.3649 18.7991 48.5039 19.2086V11.662ZM50.8462 22.7483V30.2047C52.1727 29.6564 52.9847 28.0694 52.9296 26.2186C52.8781 24.5343 52.0294 23.0953 50.8462 22.7483Z" fill="#1A237E"/>
</svg>
