<svg width="34" height="31" viewBox="0 0 34 31" fill="none" xmlns="http://www.w3.org/2000/svg">
<path d="M6.28729 28.5134H30.3346C31.4421 28.5134 32.5576 28.5534 33.6651 28.5134C33.6809 28.5134 33.6968 28.5134 33.7127 28.5134C34.0958 28.5134 34.0958 27.9142 33.7127 27.9142H9.66535C8.55786 27.9142 7.44242 27.8743 6.33493 27.9142C6.31905 27.9142 6.30317 27.9142 6.28729 27.9142C5.90424 27.9142 5.90424 28.5134 6.28729 28.5134Z" fill="#221F20"/>
<path d="M11.2682 18.5488H9.15439C8.88035 18.5488 8.6582 18.7724 8.6582 19.0482V27.4271C8.6582 27.7029 8.88035 27.9265 9.15439 27.9265H11.2682C11.5422 27.9265 11.7644 27.7029 11.7644 27.4271V19.0482C11.7644 18.7724 11.5422 18.5488 11.2682 18.5488Z" fill="#1A237E"/>
<path d="M18.1285 27.6993H15.0223L15.32 27.9989V12.4773L15.0223 12.7769H18.1285L17.8308 12.4773V27.9989C17.8308 28.3844 18.4262 28.3844 18.4262 27.9989V12.4773C18.4262 12.3156 18.2892 12.1777 18.1285 12.1777H15.0223C14.8616 12.1777 14.7246 12.3156 14.7246 12.4773V27.9989C14.7246 28.1606 14.8616 28.2985 15.0223 28.2985H18.1285C18.5115 28.2985 18.5115 27.6993 18.1285 27.6993Z" fill="#221F20"/>
<path d="M23.9967 18.5488H21.8829C21.6089 18.5488 21.3867 18.7724 21.3867 19.0482V27.4271C21.3867 27.7029 21.6089 27.9265 21.8829 27.9265H23.9967C24.2707 27.9265 24.4929 27.7029 24.4929 27.4271V19.0482C24.4929 18.7724 24.2707 18.5488 23.9967 18.5488Z" fill="#1A237E"/>
<path d="M30.8564 27.6985H27.7502L28.0479 27.9981V10.1037C28.0479 9.86806 28.0836 9.60241 28.0479 9.36872C28.0479 9.35873 28.0479 9.34675 28.0479 9.33676L27.7502 9.63636H30.8564L30.5586 9.33676V25.7012C30.5586 26.4542 30.5249 27.2152 30.5586 27.9682C30.5586 27.9782 30.5586 27.9901 30.5586 28.0001C30.5586 28.3856 31.1541 28.3856 31.1541 28.0001V11.6337C31.1541 10.8807 31.1878 10.1197 31.1541 9.36672C31.1541 9.35673 31.1541 9.34475 31.1541 9.33476C31.1541 9.17297 31.0171 9.03516 30.8564 9.03516H27.7502C27.5894 9.03516 27.4525 9.17297 27.4525 9.33476V25.6992C27.4525 26.4522 27.4188 27.2132 27.4525 27.9662C27.4525 27.9762 27.4525 27.9882 27.4525 27.9981C27.4525 28.1599 27.5894 28.2977 27.7502 28.2977H30.8564C31.2394 28.2977 31.2394 27.6985 30.8564 27.6985Z" fill="#221F20"/>
<path d="M8.66092 14.4187C9.4568 13.6037 10.2507 12.7888 11.0466 11.9719C12.3149 10.6716 13.5811 9.37331 14.8494 8.07303C15.1412 7.77542 15.4309 7.47581 15.7227 7.17821H15.3019C17.2053 8.7022 19.1087 10.2262 21.0101 11.7502C21.282 11.9679 21.5559 12.1876 21.8278 12.4053C21.9548 12.5072 22.1235 12.5291 22.2486 12.4053C23.1894 11.4845 24.1301 10.5657 25.0709 9.64495C26.5654 8.18488 28.058 6.72281 29.5525 5.26273C29.8978 4.92518 30.2432 4.58762 30.5866 4.25007C30.8624 3.98043 30.4397 3.55698 30.1658 3.82663C29.225 4.74741 28.2842 5.6662 27.3435 6.58699C25.8489 8.04706 24.3564 9.50913 22.8619 10.9692C22.5165 11.3068 22.1712 11.6443 21.8278 11.9819H22.2486C20.3452 10.4579 18.4418 8.93389 16.5404 7.4099C16.2685 7.19219 15.9946 6.97248 15.7227 6.75477C15.5977 6.6549 15.425 6.62893 15.3019 6.75477C14.506 7.56969 13.7121 8.38461 12.9162 9.20154C11.648 10.5018 10.3817 11.8001 9.11344 13.1004C8.82168 13.398 8.53191 13.6976 8.24015 13.9952C7.9722 14.2708 8.39297 14.6943 8.66092 14.4187Z" fill="#221F20"/>
<path d="M15.7713 8.81857C16.6449 8.81857 17.3532 8.10585 17.3532 7.22667C17.3532 6.34748 16.6449 5.63477 15.7713 5.63477C14.8977 5.63477 14.1895 6.34748 14.1895 7.22667C14.1895 8.10585 14.8977 8.81857 15.7713 8.81857Z" fill="#1A237E"/>
<path d="M29.949 6.1838C30.8227 6.1838 31.5309 5.47108 31.5309 4.5919C31.5309 3.71272 30.8227 3 29.949 3C29.0754 3 28.3672 3.71272 28.3672 4.5919C28.3672 5.47108 29.0754 6.1838 29.949 6.1838Z" fill="#1A237E"/>
<path d="M8.83185 15.8615C9.70549 15.8615 10.4137 15.1488 10.4137 14.2696C10.4137 13.3905 9.70549 12.6777 8.83185 12.6777C7.95822 12.6777 7.25 13.3905 7.25 14.2696C7.25 15.1488 7.95822 15.8615 8.83185 15.8615Z" fill="#1A237E"/>
<path d="M22.3006 13.7951C23.1742 13.7951 23.8825 13.0824 23.8825 12.2032C23.8825 11.324 23.1742 10.6113 22.3006 10.6113C21.427 10.6113 20.7188 11.324 20.7188 12.2032C20.7188 13.0824 21.427 13.7951 22.3006 13.7951Z" fill="#1A237E"/>
</svg>
