<svg width="1044" height="443" viewBox="0 0 1044 443" fill="none" xmlns="http://www.w3.org/2000/svg">
<path d="M392.481 226.933V315.6H410.481H428.481V278.933V242.267H467.148H505.814V278.933V315.6H523.814H541.814V226.933V138.267H523.814H505.814V174.267V210.267H467.148H428.481V174.267V138.267H410.481H392.481V226.933Z" fill="black"/>
<path d="M733 226.933V315.867L774.733 315.2C819 314.533 823.8 314 838.067 307.467C861.133 297.067 875.533 280.533 881.933 256.8C885.267 244.4 885.267 210.4 881.8 197.6C875.667 174.4 863.133 158.133 843.667 148.667C825.4 139.733 822.333 139.333 775.4 138.667L733 138V226.933ZM818.6 174.133C833.8 180 844.333 193.333 847.533 210.8C853.267 242.267 840.867 270.667 817.267 279.733C811 282.133 806.067 282.8 789.4 283.333L769 283.867V226.933V170L790.067 170.533C807.667 171.067 812.2 171.6 818.6 174.133Z" fill="black"/>
<path d="M583.467 226.267L614.933 314.667L638.267 314.933L661.6 315.333L691.733 228.933C708.4 181.467 722.4 141.6 722.933 140.267C723.867 138.133 722.4 138 704.533 138H685.2L667.867 189.6C639.067 275.6 638.8 276.533 637.333 272.667C636.533 270.8 625.867 239.733 613.467 203.733L590.933 138H571.467H552L583.467 226.267Z" fill="black"/>
<path d="M923.6 175.6C894.667 258.533 876 312.8 876 314C876 314.8 883.6 315.333 895.067 315.333H914.267L916.533 306.933C917.733 302.4 920.267 293.867 922 288L925.2 277.333H959.333H993.333L996.667 288C998.4 293.867 1000.93 302.4 1002.27 306.933L1004.67 315.333H1024.27H1044L1038.67 300.267C1035.73 292.133 1021.73 252.267 1007.47 212L981.6 138.667L959.2 138.267L936.667 138L923.6 175.6ZM982.667 246.933C982.667 247.2 972.133 247.333 959.467 247.333H936.133L937.333 243.6C938 241.6 943.067 225.6 948.8 208L958.933 176L970.8 211.333C977.333 230.8 982.667 246.8 982.667 246.933Z" fill="black"/>
<rect width="285.22" height="96.5808" transform="translate(296.216 414.322) rotate(-179.703)" fill="#9A7ED9"/>
<path d="M122.837 369.088C119.231 374.083 119.092 379.59 122.553 384.058C125.083 387.323 126.949 387.492 154.283 387.451C180.816 387.411 183.617 387.063 185.62 384.307C188.024 381.034 188.565 374.151 186.836 370.884C184.308 365.899 179.376 365.046 152.842 365.086C126.175 365.126 125.642 365.127 122.837 369.088Z" fill="black"/>
<path d="M47.3333 2.2678C25.6 8.00113 9.33333 23.0678 2.93333 43.3345L0 52.8011V220.134C0 378.668 0.133333 387.868 2.4 395.468C9.6 418.934 29.4667 437.201 52.5333 441.468C56.9333 442.268 97.2 442.801 155.867 442.668C263.067 442.668 261.733 442.801 277.2 433.468C291.733 424.668 304 407.734 307.333 391.734C308.267 386.934 308.667 333.334 308.4 216.668L308 48.5345L302.4 37.2011C293.2 18.8011 278.267 6.6678 259.067 2.13447C246.8 -0.798868 58.4 -0.665534 47.3333 2.2678ZM94 39.4678C94 51.7345 102.4 61.4678 114.933 64.1345C119.333 65.0678 135.333 65.4678 158.933 65.2011C190.4 64.8011 196.667 64.4011 200 62.5345C208.533 57.8678 214 48.6678 214 38.8011V33.4678H234.267C252 33.4678 255.2 33.8678 260.267 36.2678C267.333 39.7345 273.2 46.6678 275.2 54.0011C276.4 58.0011 276.667 103.868 276.4 222.801L276 386.134L273.067 391.468C269.733 397.734 264.533 402.801 258 406.268C253.6 408.668 248.4 408.801 154.667 408.801H56L50.5333 405.868C43.4667 402.134 36.2667 393.734 34.2667 386.934C31.7333 378.801 32 57.6011 34.4 51.7345C37.2 45.2011 42.6667 39.3345 49.0667 36.2678C54 33.8678 57.0667 33.4678 74.4 33.4678H94V39.4678ZM190 35.3345C190.8 36.4011 191.333 38.6678 191.067 40.4011L190.667 43.4678L154.667 43.8678C122 44.1345 118.533 44.0011 117.067 41.8678C114.8 38.9345 114.933 38.1345 117.467 35.6011C120.4 32.5345 187.467 32.4011 190 35.3345Z" fill="black"/>
<path d="M133.496 227.65L77.8318 222.91C75.5079 222.715 73.8018 220.85 74.0186 218.753C74.0693 218.287 74.2076 217.846 74.4243 217.446L125.048 117.243C125.754 115.841 127.289 115.017 128.894 115.012L198.441 115C200.784 115 202.684 116.715 202.684 118.829C202.684 119.686 202.375 120.473 201.849 121.113L166.225 173.258L230.23 179.617C232.554 179.846 234.232 181.735 233.974 183.833C233.876 184.662 233.477 185.439 232.839 186.043L103.017 326.626C101.528 328.245 98.8626 328.465 97.0689 327.117C95.6672 326.068 95.2107 324.37 95.7917 322.905L133.496 227.65Z" fill="#FF8001"/>
</svg>
