<svg width="25" height="25" viewBox="0 0 25 25" fill="none" xmlns="http://www.w3.org/2000/svg">
<g clip-path="url(#clip0_1_86)">
<path d="M8.24915 15.9484V2.27832L9.74915 3.03777L11.2491 2.27832L12.7463 3.03777L14.2637 2.27832L15.7491 3.03777L17.2393 2.27832L18.736 3.03777L20.2491 2.27832L21.7496 3.03777L23.2491 2.27832V12.9106" stroke="#591567" stroke-width="1.5189" stroke-linejoin="round"/>
<path d="M23.2492 12.9106V18.2268C23.2492 19.2339 22.8541 20.1997 22.1508 20.9118C21.4476 21.624 20.4937 22.024 19.4992 22.024V22.024C18.5046 22.024 17.5508 21.624 16.8475 20.9118C16.1443 20.1997 15.7492 19.2339 15.7492 18.2268V15.9484H2.99917C2.90044 15.9476 2.80252 15.9666 2.71113 16.0044C2.61974 16.0423 2.53671 16.0982 2.46689 16.1689C2.39707 16.2396 2.34186 16.3237 2.30448 16.4162C2.2671 16.5088 2.2483 16.6079 2.24917 16.7079C2.24917 19.7457 2.56511 22.024 5.99917 22.024H19.4992" stroke="#591567" stroke-width="1.5189" stroke-linejoin="round"/>
<path d="M14.2491 10.6323H20.2491M11.2491 6.83508H20.2491H11.2491Z" stroke="#591567" stroke-width="1.5189" stroke-linecap="round" stroke-linejoin="round"/>
</g>
<defs>
<clipPath id="clip0_1_86">
<rect width="24" height="24.3024" fill="white" transform="translate(0.749146)"/>
</clipPath>
</defs>
</svg>
