<svg width="82" height="29" viewBox="0 0 82 29" fill="none" xmlns="http://www.w3.org/2000/svg">
<g opacity="0.4" clip-path="url(#clip0_1_588)">
<rect width="81.266" height="28.2174" transform="translate(0.535278 0.484985)" fill="white" style="mix-blend-mode:color-burn"/>
<path d="M27.1992 7.20483L24.0856 14.7477L25.3942 7.20483H21.9874L19.8214 23.2389H23.499L30.6963 7.20483H27.1992V7.20483ZM32.1624 16.468H35.118L35.9754 13.6229H33.0198L34.0802 10.0941H37.1034L37.9833 7.20483H31.5307L26.7024 23.2389H33.0424L34.1705 20.1953H31.0343L32.1624 16.468ZM12.8992 26.5229C11.1276 26.5229 9.45956 26.0841 8.00029 25.3105L7.13056 27.068C8.85268 27.9683 10.8157 28.4781 12.8992 28.4781C16.8373 28.4781 20.3443 26.6562 22.6075 23.8191H19.9189C18.0706 25.4975 15.6064 26.5229 12.8992 26.5229ZM15.084 20.4449V22.1016L19.2536 18.9723L15.2185 15.2642V16.8683H10.9142L15.2185 6.87553V14.2386L18.7037 17.4613L18.7903 0.484985H14.9764L1.04181 28.6137L5.66883 28.7023L9.40779 20.4449H15.084V20.4449ZM3.88247 21.3496C3.01389 19.849 2.51742 18.1109 2.51742 16.2581C2.51742 11.0977 6.36933 6.82713 11.3854 6.10254L12.4027 4.04914C5.80715 4.30702 0.539917 9.67409 0.539917 16.2582C0.539917 18.9007 1.3884 21.3474 2.83053 23.3464L3.88247 21.3496V21.3496ZM18.6969 23.2389V20.2098L15.0797 23.2389H18.6969V23.2389ZM70.1331 15.6299C70.9679 15.6299 71.4417 15.1447 71.5771 14.6815L73.2241 9.23393C73.5399 8.17529 73.0662 7.20488 71.5996 7.20488H65.3951L60.5668 23.2389H63.9737L66.0268 16.4019H67.1549C67.561 16.4019 67.6061 16.6886 67.5159 16.9533L65.6207 23.239H69.0275L70.7873 17.3944C71.1484 16.2475 70.6521 15.7181 70.1331 15.6299ZM69.5917 10.447L68.6892 13.4244C68.5313 13.9096 68.238 14.042 67.8995 14.042H66.7263L68.0124 9.7853H69.0727C69.5917 9.7853 69.7271 10.0279 69.5917 10.447V10.447ZM43.9394 7.20483L42.0668 13.4023L41.954 7.20483H39.0435L34.2152 23.2389H37.4191L39.3819 16.8429L39.6752 23.2389H42.4053L47.2335 7.20483H43.9394V7.20483ZM77.9392 10.0941H80.9174L81.7973 7.20483H76.5404C75.7282 7.20483 74.916 7.42538 74.5324 8.5502L72.6598 14.7697C72.3214 15.9386 72.6598 16.7106 74.0812 16.7106H75.8861C76.0892 16.7106 76.0892 16.7988 76.044 16.9311L75.2544 19.6439C75.119 20.0409 75.0288 20.1953 74.397 20.1953H71.5542L70.6292 23.2389H76.202C76.9014 23.2389 77.6459 22.9081 77.8264 22.2684L79.6991 16.0489C80.1728 14.483 79.4057 13.8214 78.1874 13.8214H76.3599L77.33 10.5572C77.4428 10.2043 77.691 10.0941 77.9392 10.0941V10.0941ZM50.9334 13.6229L50.0761 16.468H50.7754L49.5346 20.5703H48.3839C47.9326 20.5703 47.7296 20.3938 47.865 19.9307L50.6852 10.5793C50.798 10.1823 50.9786 10.094 51.3395 10.094H54.6561L55.5361 7.20478H50.0986C49.0156 7.20478 48.2711 7.51356 47.9101 8.70451L44.4356 20.2614C43.8039 22.3787 45.0899 23.2389 46.6241 23.2389H48.7223L48.3614 24.496L52.1517 22.6213L54.8591 13.6228H50.9334V13.6229ZM58.5141 16.468H61.4697L62.327 13.6229H59.3714L60.4318 10.0941H63.4551L64.335 7.20483H57.8823L53.054 23.2389H59.394L60.5221 20.1953H57.3859L58.5141 16.468Z" fill="black"/>
</g>
<defs>
<clipPath id="clip0_1_588">
<rect width="81.266" height="28.2174" fill="white" transform="translate(0.535278 0.484985)"/>
</clipPath>
</defs>
</svg>
