<svg width="67" height="32" viewBox="0 0 67 32" fill="none" xmlns="http://www.w3.org/2000/svg">
<g clip-path="url(#clip0_1_590)">
<rect width="65.2714" height="30.9648" transform="translate(0.80127 0.111206)" fill="white" style="mix-blend-mode:color-burn"/>
<path d="M7.80055 11.2955V2.54612C7.80055 2.22192 7.83289 2.02748 8.38407 2.02748H15.8047C17.1011 2.02748 17.814 3.12945 18.3326 5.20325L18.7538 6.85621H20.0175C20.2441 2.15762 20.4384 0.115967 20.4384 0.115967C20.4384 0.115967 17.2628 0.472317 15.3832 0.472317H5.88904L0.800598 0.310217V1.67132L2.51844 1.99533C3.71744 2.2223 4.00852 2.48124 4.10652 3.58341C4.10652 3.58341 4.20393 6.82386 4.20393 12.171C4.20393 17.5175 4.10652 20.726 4.10652 20.726C4.10652 21.698 3.71744 22.0543 2.51844 22.2819L0.800598 22.6061V23.9664L5.88904 23.8047H14.3793C16.2912 23.8047 20.7306 23.9664 20.7306 23.9664C20.8275 22.7996 21.476 17.5175 21.5733 16.9349H20.3743L19.1104 19.819C18.1056 22.0869 16.6477 22.2492 15.0271 22.2492H10.1984C8.57793 22.2492 7.80016 21.601 7.80016 20.2077V12.8191C7.80016 12.8191 11.3323 12.8191 12.5634 12.9165C13.471 12.9815 14.0216 13.2407 14.3136 14.5044L14.7027 16.1895H16.0954L15.9985 11.9439L16.1928 7.66671H14.7997L14.3463 9.54607C14.0543 10.7774 13.8602 11.0048 12.5962 11.134C11.1706 11.2964 7.79997 11.2639 7.79997 11.2639V11.2961H7.80055V11.2955V11.2955ZM27.0169 3.45365C26.5631 5.46276 26.1094 7.01811 24.5215 8.05521C23.5495 8.70303 22.5771 8.92962 22.1888 8.96216V10.1935H25.0727V20.1419C25.0727 22.9291 26.9201 24.2904 29.3826 24.2904C31.2946 24.2904 33.271 23.4803 33.9518 21.7948L33.271 20.9198C32.9468 21.471 31.9105 22.2809 30.6141 22.2809C29.1885 22.2809 28.4107 21.3085 28.4107 18.8462V10.0645L33.2071 10.4213L33.4661 8.21712L28.4109 8.41175V3.4858L27.0169 3.45365V3.45365ZM37.2573 18.7557L36.026 18.7881C36.0907 19.5008 36.1234 20.4085 36.1234 21.251C36.1234 22.1259 36.091 22.9361 36.026 23.3248C36.026 23.3248 38.4888 24.2313 40.9841 24.2313C44.3543 24.2313 47.0441 22.6111 47.0441 19.4353C47.0441 13.9919 38.8779 14.8022 38.8779 11.1397C38.8779 9.61691 40.2388 9.03339 41.7295 9.03339C42.8962 9.03339 43.8682 9.45462 44.0626 10.0709L44.8729 12.5012L46.0721 12.4365C46.1695 11.1401 46.234 9.64945 46.4287 8.45064C45.3914 7.99688 43.22 7.73717 41.86 7.73717C38.6835 7.73717 36.124 9.13081 36.124 12.2419C36.124 17.6534 44.0954 16.5516 44.0954 20.5381C44.0954 21.9633 43.22 22.968 41.2438 22.968C39.4295 22.968 38.5218 22.0285 38.166 21.0883L37.2573 18.7557V18.7557ZM56.7888 22.4994C54.9127 27.74 52.6162 29.0976 50.5462 29.0976C49.6724 29.0976 49.2523 28.7091 49.1224 28.0955L48.6372 25.5718L47.2784 25.6365C47.0197 27.1247 46.761 28.7749 46.4056 30.1332C47.2143 30.7469 48.5722 31.0711 49.6401 31.0711C51.8725 31.0711 55.2685 30.7794 58.3732 23.4048L63.5814 11.1135C64.0023 10.1105 64.1634 10.0135 65.3926 9.52797L66.072 9.2698V8.13761L62.9989 8.29932L59.6997 8.13761V9.2698L60.5402 9.52797C61.381 9.78729 61.7698 10.1105 61.7698 10.6929C61.7698 10.9838 61.6724 11.2751 61.5103 11.7275C61.0252 12.9575 58.0169 20.2674 57.2091 21.8204L58.0167 21.5288C56.5932 18.0032 54.427 12.1156 54.1032 11.1137C54.0385 10.9195 54.0062 10.7578 54.0062 10.5953C54.0062 10.078 54.3619 9.65734 55.1384 9.49582L56.2059 9.26999V8.1378L51.7739 8.29951L48.2483 8.1378V9.26999L48.8307 9.46386C49.6393 9.72261 49.8335 9.9492 50.3187 11.0812C53.0026 17.2273 54.2649 20.5908 55.9785 24.9904L56.7888 22.4994V22.4994Z" fill="#999999"/>
</g>
<defs>
<clipPath id="clip0_1_590">
<rect width="65.2714" height="30.9648" fill="white" transform="translate(0.80127 0.111206)"/>
</clipPath>
</defs>
</svg>
