<svg width="34" height="33" viewBox="0 0 34 33" fill="none" xmlns="http://www.w3.org/2000/svg">
<g opacity="0.4" clip-path="url(#clip0_1_594)">
<rect width="32.4969" height="32.4969" transform="translate(0.63623 0.345215)" fill="white" style="mix-blend-mode:color-burn"/>
<path fill-rule="evenodd" clip-rule="evenodd" d="M3.88592 0.345215H29.8834C31.6783 0.345215 33.1331 1.80003 33.1331 3.5949V29.5924C33.1331 31.3873 31.6783 32.8421 29.8834 32.8421H3.88592C2.09105 32.8421 0.63623 31.3873 0.63623 29.5924V3.5949C0.63623 1.80003 2.09105 0.345215 3.88592 0.345215Z" fill="#010101"/>
<path fill-rule="evenodd" clip-rule="evenodd" d="M21.0413 30.2421C22.0301 30.2421 22.8318 29.447 22.8318 28.4662C22.8318 27.4854 22.0301 26.6902 21.0413 26.6902H20.7716C21.7604 26.6902 22.5621 27.4854 22.5621 28.4662C22.5621 29.447 21.7604 30.2421 20.7716 30.2421H21.0413Z" fill="#C1C9CF"/>
<path fill-rule="evenodd" clip-rule="evenodd" d="M20.7473 26.6902H20.4776C19.4888 26.6902 18.687 27.4854 18.687 28.4662C18.687 29.447 19.4888 30.2421 20.4776 30.2421H20.7473C19.7584 30.2421 18.9567 29.447 18.9567 28.4662C18.9567 27.4854 19.7584 26.6902 20.7473 26.6902V26.6902Z" fill="#C1C9CF"/>
<path d="M20.7599 29.3299C21.2409 29.3299 21.6307 28.9433 21.6307 28.4664C21.6307 27.9895 21.2409 27.6029 20.7599 27.6029C20.279 27.6029 19.8892 27.9895 19.8892 28.4664C19.8892 28.9433 20.279 29.3299 20.7599 29.3299Z" fill="#010101"/>
<path fill-rule="evenodd" clip-rule="evenodd" d="M7.13538 25.8877V26.7879H8.18983V30.218H9.24468V26.8122H10.103L10.3973 25.8877H7.13538ZM15.7685 25.8877V26.7879H16.823V30.218H17.8778V26.8122H18.7361L19.0304 25.8877H15.7685ZM10.5937 26.3985C10.5937 26.1165 10.8239 25.8877 11.1083 25.8877C11.393 25.8877 11.6235 26.1165 11.6235 26.3985C11.6235 26.6806 11.3931 26.9094 11.1083 26.9094C10.8239 26.9093 10.5937 26.6806 10.5937 26.3985ZM10.5937 27.2744H11.6235V30.218H10.5937V27.2744ZM12.065 25.8877V30.218H13.0952V29.099L13.414 28.8068L14.4195 30.2423H15.5231L14.0759 28.1501L15.3758 26.885H14.1251L13.0952 27.9067V25.8877H12.065ZM23.1751 25.8877V30.218H24.2053V29.099L24.5241 28.8068L25.5298 30.2423H26.6335L25.1863 28.1501L26.4862 26.885H25.2355L24.2053 27.9067V25.8877H23.1751Z" fill="white"/>
<path fill-rule="evenodd" clip-rule="evenodd" d="M21.5858 10.8983C23.0084 11.9146 24.7513 12.5127 26.6335 12.5127V8.89243C26.2772 8.89257 25.922 8.85541 25.5734 8.78155V11.6313C23.6914 11.6313 21.9487 11.0332 20.5258 10.0168V17.4047C20.5258 21.1005 17.5283 24.0963 13.8308 24.0963C12.4512 24.0963 11.1689 23.6794 10.1036 22.9645C11.3194 24.2069 13.0148 24.9777 14.8906 24.9777C18.5883 24.9777 21.5859 21.9819 21.5859 18.286V10.8983H21.5858ZM22.8935 7.24588C22.1665 6.45205 21.6892 5.42606 21.5858 4.29179V3.82617H20.5813C20.8341 5.26773 21.6966 6.49936 22.8935 7.24588V7.24588ZM12.4422 20.1286C12.0361 19.5962 11.8165 18.945 11.8175 18.2754C11.8175 16.5851 13.1886 15.2146 14.8802 15.2146C15.1954 15.2144 15.5087 15.2628 15.8092 15.358V11.6569C15.4581 11.6088 15.1038 11.5884 14.7495 11.5959V14.4767C14.4489 14.3815 14.1354 14.3331 13.8201 14.3333C12.1286 14.3333 10.7576 15.7038 10.7576 17.3943C10.7576 18.5895 11.4429 19.6245 12.4422 20.1286V20.1286Z" fill="#C1C9CF"/>
<path fill-rule="evenodd" clip-rule="evenodd" d="M20.5265 10.0168C21.9495 11.0332 23.6921 11.6313 25.5742 11.6313V8.78155C24.5236 8.55798 23.5936 8.00917 22.8942 7.24588C21.6973 6.49936 20.8348 5.26773 20.582 3.82617H17.9434V18.2858C17.9374 19.9715 16.5687 21.3364 14.8808 21.3364C13.8861 21.3364 13.0025 20.8626 12.4429 20.1286C11.4435 19.6245 10.7582 18.5895 10.7582 17.3943C10.7582 15.7038 12.1292 14.3333 13.8207 14.3333C14.1448 14.3333 14.4571 14.3838 14.7501 14.4767V11.5959C11.1176 11.6709 8.19617 14.6375 8.19617 18.286C8.19617 20.1072 8.92371 21.7583 10.1044 22.9646C11.1696 23.6795 12.452 24.0964 13.8315 24.0964C17.529 24.0964 20.5265 21.1005 20.5265 17.4048V10.0168Z" fill="white"/>
<path fill-rule="evenodd" clip-rule="evenodd" d="M25.5733 8.78164V8.01108C24.6259 8.01251 23.6972 7.74732 22.8934 7.24584C23.6049 8.02444 24.5418 8.56137 25.5733 8.78164V8.78164ZM20.5811 3.82626C20.557 3.68851 20.5385 3.54983 20.5256 3.41056V2.94495H16.8823V17.4048C16.8765 19.0903 15.5079 20.4552 13.8198 20.4552C13.3242 20.4552 12.8564 20.3377 12.442 20.1286C13.0016 20.8627 13.8852 21.3365 14.8799 21.3365C16.5676 21.3365 17.9365 19.9716 17.9425 18.2859V3.82626H20.5811ZM14.7494 11.596V10.7757C14.445 10.734 14.138 10.7132 13.8308 10.7134C10.1329 10.7134 7.13538 13.7093 7.13538 17.4048C7.13538 19.7216 8.31345 21.7635 10.1036 22.9646C8.92296 21.7583 8.19542 20.1072 8.19542 18.2859C8.19542 14.6376 11.1168 11.671 14.7494 11.596V11.596Z" fill="#C1C9CF"/>
<path fill-rule="evenodd" clip-rule="evenodd" d="M20.7718 30.2421C21.7606 30.2421 22.5624 29.447 22.5624 28.4662C22.5624 27.4854 21.7606 26.6902 20.7718 26.6902H20.7473C19.7585 26.6902 18.9569 27.4854 18.9569 28.4662C18.9569 29.447 19.7585 30.2421 20.7473 30.2421H20.7718ZM19.8889 28.4662C19.8889 27.9891 20.2789 27.6027 20.7598 27.6027C21.2404 27.6027 21.6304 27.9891 21.6304 28.4662C21.6304 28.9433 21.2404 29.33 20.7598 29.33C20.2789 29.3298 19.8889 28.9433 19.8889 28.4662Z" fill="white"/>
</g>
<defs>
<clipPath id="clip0_1_594">
<rect width="32.4969" height="32.4969" fill="white" transform="translate(0.63623 0.345215)"/>
</clipPath>
</defs>
</svg>
