<svg width="513" height="648" viewBox="0 0 513 648" fill="none" xmlns="http://www.w3.org/2000/svg">
<rect width="513" height="648" fill="#FEEAE2"/>
<path d="M374.428 207.92L367.777 207.077L367.182 207.001C356.809 205.693 346.867 202.054 338.1 196.357L338.023 196.307L331.949 192.366C333.012 190.101 334.128 187.862 335.299 185.65C335.381 185.495 335.462 185.34 335.545 185.187C337.397 181.783 341.35 180.104 345.085 181.136C345.301 181.196 345.516 181.265 345.73 181.343L356.191 185.172L371.015 190.598C374.896 192.016 377.15 196.065 376.311 200.111C376.217 200.567 376.11 201.021 376.009 201.476C375.53 203.636 375.003 205.785 374.428 207.92Z" fill="#FF999A"/>
<path d="M358.082 244.39C355.956 245.592 353.41 245.801 351.117 244.96L347.126 243.5L337.215 239.872L328.423 236.654L325.885 235.725C321.998 234.303 319.744 230.242 320.593 226.191C320.745 225.468 320.918 224.75 321.081 224.029C321.493 222.204 321.939 220.387 322.418 218.577C323.335 215.115 324.37 211.687 325.526 208.294C326.69 204.873 327.972 201.496 329.373 198.163C330.192 196.213 331.051 194.281 331.949 192.366L336.464 195.296L338.099 196.357C339.178 197.057 340.273 197.726 341.385 198.363C347.698 201.987 354.544 204.59 361.669 206.078C363.544 206.47 365.433 206.78 367.332 207.021L374.427 207.921C373.881 209.965 373.292 211.996 372.663 214.015C371.588 217.464 370.393 220.872 369.08 224.239C367.778 227.574 366.362 230.862 364.83 234.104C363.912 236.047 362.953 237.972 361.953 239.877C361.739 240.285 361.529 240.696 361.31 241.101C360.566 242.48 359.446 243.62 358.082 244.39Z" fill="#FE7578"/>
<mask id="mask0_23_56" style="mask-type:luminance" maskUnits="userSpaceOnUse" x="320" y="192" width="55" height="54">
<path fill-rule="evenodd" clip-rule="evenodd" d="M358.082 244.39C355.956 245.592 353.41 245.801 351.117 244.96L347.126 243.5L337.215 239.872L328.423 236.654L325.885 235.725C321.998 234.303 319.744 230.242 320.593 226.191C320.745 225.468 320.918 224.75 321.081 224.029C321.493 222.204 321.939 220.387 322.418 218.577C323.335 215.115 324.37 211.687 325.526 208.294C326.69 204.873 327.972 201.496 329.373 198.163C330.192 196.213 331.051 194.281 331.949 192.366L336.464 195.296L338.099 196.357C339.178 197.057 340.273 197.726 341.385 198.363C347.698 201.987 354.544 204.59 361.669 206.078C363.544 206.47 365.433 206.78 367.332 207.021L374.427 207.921C373.881 209.965 373.292 211.996 372.663 214.015C371.588 217.464 370.393 220.872 369.08 224.239C367.778 227.574 366.362 230.862 364.83 234.104C363.912 236.047 362.953 237.972 361.953 239.877C361.739 240.285 361.529 240.696 361.31 241.101C360.566 242.48 359.446 243.62 358.082 244.39Z" fill="white"/>
</mask>
<g mask="url(#mask0_23_56)">
<path d="M318.729 231.05C361.932 245.231 362.911 234.537 368.314 226.405C373.717 218.273 370.418 245.861 370.418 245.861C370.418 245.861 358.421 253.592 357.57 253.746C356.719 253.9 319.166 240.864 319.166 240.864L315.926 239.516" fill="#E55A61"/>
<path d="M357.2 213.444C354.58 214.662 351.565 214.707 348.911 213.566C345.221 211.986 342.806 208.383 342.747 204.369C342.688 200.356 344.996 196.683 348.638 194.996C349.452 194.618 350.311 194.349 351.195 194.196C356.222 193.329 361.113 196.319 362.632 201.189C364.151 206.058 361.828 211.299 357.2 213.444Z" fill="#E55A61"/>
</g>
<path d="M356.781 211.288C354.161 212.507 351.146 212.551 348.492 211.41C344.802 209.83 342.387 206.227 342.328 202.213C342.269 198.2 344.577 194.527 348.219 192.84C349.033 192.462 349.892 192.193 350.776 192.04C355.803 191.173 360.694 194.163 362.213 199.033C363.732 203.902 361.409 209.144 356.781 211.288Z" fill="#FFC562"/>
<path d="M355.527 208.586C353.674 209.447 351.543 209.479 349.666 208.672C347.324 207.67 345.688 205.503 345.364 202.977C345.041 200.45 346.078 197.941 348.092 196.382C350.275 194.685 353.236 194.391 355.711 195.623C358.185 196.856 359.734 199.398 359.695 202.162C359.656 204.926 358.036 207.423 355.527 208.586H355.527Z" fill="#FF9763"/>
<path d="M364.651 194.739C365.514 195.075 366.06 195.932 366 196.856C366.001 197.027 366.139 197.166 366.31 197.168C366.481 197.164 366.618 197.026 366.621 196.856C366.681 195.652 365.948 194.549 364.814 194.138C364.649 194.094 364.478 194.191 364.431 194.356C364.389 194.521 364.485 194.69 364.649 194.739H364.651Z" fill="#FE7578"/>
<path d="M332.875 225.327C333.714 227.209 335.365 228.606 337.359 229.122C337.523 229.161 337.687 229.063 337.732 228.902C337.776 228.74 337.685 228.572 337.525 228.522C335.688 228.045 334.172 226.752 333.412 225.013C333.325 224.866 333.135 224.816 332.987 224.902C332.842 224.992 332.793 225.179 332.876 225.328L332.875 225.327Z" fill="#E55A61"/>
<path d="M400.976 325.343L372.568 342.151L368.006 314.912L396.415 298.104L400.976 325.343Z" fill="#F0F3FC"/>
<path d="M400.976 325.343L422.371 341.595L393.961 358.406L372.568 342.151L400.976 325.343Z" fill="#97CC64"/>
<mask id="mask1_23_56" style="mask-type:luminance" maskUnits="userSpaceOnUse" x="372" y="325" width="51" height="34">
<path fill-rule="evenodd" clip-rule="evenodd" d="M400.976 325.343L422.371 341.595L393.961 358.406L372.568 342.151L400.976 325.343Z" fill="white"/>
</mask>
<g mask="url(#mask1_23_56)">
<path d="M361.018 358.605H433.92" stroke="white" stroke-width="0.6"/>
<path d="M361.018 355.816H433.92" stroke="white" stroke-width="0.6"/>
<path d="M361.018 353.028H433.92" stroke="white" stroke-width="0.6"/>
<path d="M361.018 350.239H433.92" stroke="white" stroke-width="0.6"/>
<path d="M361.018 347.451H433.92" stroke="white" stroke-width="0.6"/>
<path d="M361.018 344.662H433.92" stroke="white" stroke-width="0.6"/>
<path d="M361.018 341.874H433.92" stroke="white" stroke-width="0.6"/>
<path d="M361.018 339.085H433.92" stroke="white" stroke-width="0.6"/>
<path d="M361.018 336.297H433.92" stroke="white" stroke-width="0.6"/>
<path d="M361.018 333.508H433.92" stroke="white" stroke-width="0.6"/>
<path d="M361.018 330.72H433.92" stroke="white" stroke-width="0.6"/>
<path d="M361.018 327.931H433.92" stroke="white" stroke-width="0.6"/>
<path d="M361.018 325.143H433.92" stroke="white" stroke-width="0.6"/>
</g>
<path d="M396.416 298.104L417.809 314.356L422.371 341.595L400.976 325.343L396.416 298.104Z" fill="#589BF7"/>
<mask id="mask2_23_56" style="mask-type:luminance" maskUnits="userSpaceOnUse" x="396" y="298" width="27" height="44">
<path fill-rule="evenodd" clip-rule="evenodd" d="M396.416 298.104L417.809 314.356L422.371 341.595L400.976 325.343L396.416 298.104Z" fill="white"/>
</mask>
<g mask="url(#mask2_23_56)">
<path d="M394.291 298.104C418.011 315.564 417.546 314.159 417.711 315.444C417.876 316.728 422.371 339.427 422.371 340.511C422.371 341.595 423.014 312.183 423.014 312.183L414.054 300.983L397.468 295.581" fill="#2976DF"/>
</g>
<path d="M385.526 315.278C383.884 317.738 382.032 320.051 379.992 322.192C379.494 322.715 380.286 323.511 380.786 322.986C382.891 320.774 384.802 318.385 386.496 315.845C386.898 315.242 385.926 314.679 385.526 315.278Z" fill="#D6DCF2"/>
<rect x="360.276" y="425.45" width="65.6594" height="87.9168" rx="5.59255" fill="#589BF7"/>
<mask id="mask3_23_56" style="mask-type:luminance" maskUnits="userSpaceOnUse" x="360" y="425" width="66" height="89">
<rect x="360.276" y="425.45" width="65.6594" height="87.9168" rx="5.59255" fill="white"/>
</mask>
<g mask="url(#mask3_23_56)">
<path d="M428.912 498.339C421.998 483.035 428.967 518.267 364.621 513.367C300.274 508.466 395.826 539.612 395.826 539.612L441.504 511.192" fill="#2976DF"/>
</g>
<rect x="365.934" y="432.673" width="54.3443" height="49.2375" rx="3.33866" fill="#EFF3FC"/>
<mask id="mask4_23_56" style="mask-type:luminance" maskUnits="userSpaceOnUse" x="365" y="432" width="56" height="50">
<rect x="365.934" y="432.673" width="54.3443" height="49.2375" rx="3.33866" fill="white"/>
</mask>
<g mask="url(#mask4_23_56)">
<path d="M343.729 449.457C362.741 451.186 363.212 432.673 378.161 432.673C393.11 432.673 360.276 427.235 360.276 427.235L358.05 431.68" fill="#D6DCF2"/>
</g>
<rect x="369.953" y="490.708" width="44.7323" height="4.99334" rx="1.89202" fill="#2976DF"/>
<rect x="369.953" y="498.339" width="32.5341" height="4.99334" rx="1.89202" fill="#2976DF"/>
<path d="M380.403 447.11C378.812 455.735 378.061 464.494 378.161 473.263H383.392C383.227 468.209 383.645 463.153 384.637 458.194L385.166 458.442L384.987 464.012L388.451 464.538V465.769L384.947 465.237L384.826 469.029C387.029 470.556 389.661 471.338 392.34 471.264V443.08C391.282 443.14 390.22 443.036 389.194 442.769C391.43 441.951 393.859 441.821 396.169 442.396C395.448 442.924 394.586 443.227 393.693 443.267V471.27C396.431 471.369 399.129 470.584 401.386 469.031L401.265 465.244L397.799 465.77V464.54L401.225 464.02L401.046 458.444L401.575 458.196C402.568 463.154 402.987 468.211 402.821 473.265H408.051C408.153 464.495 407.403 455.736 405.81 447.112C403.425 445.771 400.868 444.762 398.21 444.111V442.069C394.794 441.072 391.165 441.072 387.749 442.069V444.178C385.182 444.828 382.712 445.814 380.404 447.112L380.403 447.11Z" fill="#97CC64"/>
<mask id="mask5_23_56" style="mask-type:luminance" maskUnits="userSpaceOnUse" x="378" y="441" width="31" height="33">
<path fill-rule="evenodd" clip-rule="evenodd" d="M380.403 447.11C378.812 455.735 378.061 464.494 378.161 473.263H383.392C383.227 468.209 383.645 463.153 384.637 458.194L385.166 458.442L384.987 464.012L388.451 464.538V465.769L384.947 465.237L384.826 469.029C387.029 470.556 389.661 471.338 392.34 471.264V443.08C391.282 443.14 390.22 443.036 389.194 442.769C391.43 441.951 393.859 441.821 396.169 442.396C395.448 442.924 394.586 443.227 393.693 443.267V471.27C396.431 471.369 399.129 470.584 401.386 469.031L401.265 465.244L397.799 465.77V464.54L401.225 464.02L401.046 458.444L401.575 458.196C402.568 463.154 402.987 468.211 402.821 473.265H408.051C408.153 464.495 407.403 455.736 405.81 447.112C403.425 445.771 400.868 444.762 398.21 444.111V442.069C394.794 441.072 391.165 441.072 387.749 442.069V444.178C385.182 444.828 382.712 445.814 380.404 447.112L380.403 447.11Z" fill="white"/>
</mask>
<g mask="url(#mask5_23_56)">
<path d="M369.952 453.345C380.58 458.715 380.1 446.157 386.22 444.618C392.34 443.079 379.654 441.32 379.654 441.32L378.161 444.457" fill="#75AA3C"/>
</g>
<path d="M387.973 449.857L386.862 450.597C386.775 450.651 386.71 450.735 386.681 450.833C386.638 450.988 386.693 451.153 386.821 451.251C386.948 451.349 387.122 451.36 387.26 451.279L388.371 450.538C388.459 450.484 388.523 450.401 388.553 450.302C388.596 450.148 388.54 449.982 388.413 449.884C388.286 449.787 388.112 449.776 387.973 449.857Z" fill="#75AA3C"/>
<path d="M419.041 497.356C418.21 498.341 417.22 499.181 416.112 499.841C415.924 499.951 415.861 500.193 415.971 500.381C416.081 500.57 416.323 500.633 416.511 500.523C417.679 499.83 418.722 498.949 419.6 497.914C419.749 497.757 419.749 497.512 419.6 497.356C419.445 497.203 419.197 497.203 419.042 497.356H419.041Z" fill="#2976DF"/>
<rect x="93.2725" y="425.45" width="65.6594" height="87.9168" rx="5.59255" fill="#FFC562"/>
<mask id="mask6_23_56" style="mask-type:luminance" maskUnits="userSpaceOnUse" x="93" y="425" width="66" height="89">
<rect x="93.2725" y="425.45" width="65.6594" height="87.9168" rx="5.59255" fill="white"/>
</mask>
<g mask="url(#mask6_23_56)">
<path d="M162.603 427.316C170.707 523.542 124.393 523.2 92.552 519.668C60.7114 516.135 140.532 536.505 140.532 536.505L163.039 532.801L176.641 478.021" fill="#D89D35"/>
</g>
<rect x="98.9299" y="432.673" width="54.3443" height="49.2375" rx="3.33866" fill="#EFF3FC"/>
<mask id="mask7_23_56" style="mask-type:luminance" maskUnits="userSpaceOnUse" x="98" y="432" width="56" height="50">
<rect x="98.9299" y="432.673" width="54.3443" height="49.2375" rx="3.33866" fill="white"/>
</mask>
<g mask="url(#mask7_23_56)">
<path d="M88.6768 467.614C94.8679 424.652 134.078 430.208 134.078 430.208L73.3135 428.238" fill="#D6DCF2"/>
</g>
<rect x="102.949" y="490.708" width="44.7323" height="4.99334" rx="1.89202" fill="#E84B23"/>
<rect x="102.949" y="498.339" width="32.5341" height="4.99334" rx="1.89202" fill="#E84B23"/>
<path d="M137.324 442.863H132.289C131.569 445.691 129.023 447.671 126.104 447.671C123.185 447.671 120.639 445.691 119.919 442.863H114.876V442.866L105.262 447.672L108.469 455.688L114.876 452.481V471.721H137.323V452.481L143.734 455.688L146.941 447.672L137.324 442.863Z" fill="#FFC562"/>
<mask id="mask8_23_56" style="mask-type:luminance" maskUnits="userSpaceOnUse" x="105" y="442" width="42" height="30">
<path fill-rule="evenodd" clip-rule="evenodd" d="M137.324 442.863H132.289C131.569 445.691 129.023 447.671 126.104 447.671C123.185 447.671 120.639 445.691 119.919 442.863H114.876V442.866L105.262 447.672L108.469 455.688L114.876 452.481V471.721H137.323V452.481L143.734 455.688L146.941 447.672L137.324 442.863Z" fill="white"/>
</mask>
<g mask="url(#mask8_23_56)">
<path d="M103.756 455.021C105.262 447.672 119.189 443.582 124.512 445.022C129.834 446.461 117.089 436.365 117.089 436.365L91.9053 443.612" fill="#D89D35"/>
</g>
<path d="M125.347 458.464L124.232 459.573C124.133 459.673 124.094 459.818 124.13 459.954C124.167 460.09 124.273 460.197 124.409 460.233C124.546 460.27 124.691 460.231 124.791 460.131L125.905 459.022C126.059 458.868 126.059 458.618 125.905 458.464C125.751 458.31 125.501 458.31 125.347 458.464Z" fill="#D89D35"/>
<path d="M151.931 502.042C151.897 502.09 151.863 502.137 151.827 502.184C151.851 502.153 151.844 502.162 151.824 502.188L151.768 502.256C151.697 502.343 151.622 502.426 151.544 502.506C151.462 502.59 151.377 502.672 151.289 502.75C151.249 502.785 151.209 502.819 151.168 502.853L151.099 502.908C151.144 502.874 151.104 502.905 151.081 502.922C150.902 503.056 150.713 503.176 150.515 503.281C150.417 503.334 150.316 503.382 150.214 503.428C150.148 503.459 150.236 503.421 150.195 503.437L150.113 503.469C150.058 503.492 150.002 503.51 149.947 503.529C149.808 503.565 149.699 503.672 149.662 503.81C149.625 503.948 149.666 504.096 149.768 504.195C149.871 504.295 150.019 504.331 150.156 504.29C151.15 503.949 152.01 503.302 152.613 502.44C152.721 502.252 152.658 502.011 152.471 501.9C152.282 501.796 152.045 501.858 151.931 502.042V502.042Z" fill="#D89D35"/>
<rect x="146.21" y="404.95" width="96.2803" height="128.918" rx="8.20058" fill="#FE7578"/>
<mask id="mask9_23_56" style="mask-type:luminance" maskUnits="userSpaceOnUse" x="146" y="404" width="97" height="130">
<rect x="146.21" y="404.95" width="96.2803" height="128.918" rx="8.20058" fill="white"/>
</mask>
<g mask="url(#mask9_23_56)">
<path d="M247.066 454.54C234.194 429.847 283.742 544.689 157.031 533.868C30.3202 523.046 257.049 573.762 257.049 573.762L273.099 483.612" fill="#E55A61"/>
</g>
<rect x="154.506" y="415.541" width="79.6886" height="72.1999" rx="4.89569" fill="#EFF3FC"/>
<mask id="mask10_23_56" style="mask-type:luminance" maskUnits="userSpaceOnUse" x="154" y="415" width="81" height="73">
<rect x="154.506" y="415.541" width="79.6886" height="72.1999" rx="4.89569" fill="white"/>
</mask>
<g mask="url(#mask10_23_56)">
<path d="M145.216 466.233C146.55 392.918 232.807 415.541 232.807 415.541L135.156 409.037L129.4 415.541" fill="#D6DCF2"/>
</g>
<rect x="160.399" y="500.641" width="65.594" height="7.32219" rx="2.77435" fill="#FFC562"/>
<rect x="160.399" y="511.832" width="47.7067" height="7.32219" rx="2.77435" fill="#FFC562"/>
<path d="M216.127 475.588L210.269 433.088C210.073 432.167 209.234 431.527 208.294 431.581H180.405C179.465 431.527 178.626 432.167 178.431 433.088L172.572 475.588C172.546 476.114 172.748 476.625 173.127 476.991C173.505 477.357 174.023 477.541 174.547 477.497H189.893C190.866 477.558 191.725 476.869 191.876 475.905L193.919 450.159C193.968 449.938 194.164 449.78 194.39 449.78C194.617 449.78 194.812 449.938 194.861 450.159L196.828 475.901C196.976 476.866 197.837 477.559 198.812 477.497H214.153C214.677 477.541 215.195 477.356 215.573 476.991C215.951 476.625 216.153 476.114 216.127 475.588Z" fill="#FE7578"/>
<path d="M180.582 428.732H207.99C208.804 428.732 209.464 428.072 209.464 427.257C209.464 426.443 208.804 425.783 207.99 425.783H180.582C179.768 425.783 179.108 426.443 179.108 427.257C179.108 428.072 179.768 428.732 180.582 428.732Z" fill="#E55A61"/>
<path d="M189.587 441.386L183.613 447.903C183.111 448.452 183.927 449.272 184.432 448.722L190.406 442.204C190.908 441.656 190.092 440.835 189.587 441.386Z" fill="#E55A61"/>
<path d="M231.85 510.082C231.81 510.237 231.764 510.392 231.711 510.543C231.686 510.615 231.659 510.686 231.631 510.758C231.574 510.909 231.66 510.698 231.622 510.783L231.57 510.899C231.435 511.191 231.276 511.472 231.094 511.737C231.051 511.8 231.006 511.86 230.961 511.923C230.908 511.999 231.044 511.821 230.943 511.947L230.879 512.026C230.777 512.149 230.669 512.269 230.557 512.384C230.444 512.499 230.327 512.609 230.205 512.714C230.141 512.769 230.076 512.823 230.009 512.875C230.053 512.84 230.045 512.847 230.005 512.876L229.881 512.965C229.699 513.068 229.588 513.26 229.588 513.469C229.588 513.677 229.701 513.87 229.882 513.972C230.064 514.075 230.286 514.072 230.465 513.964C231.697 513.108 232.584 511.84 232.966 510.389C233.023 510.189 232.968 509.974 232.822 509.826C232.677 509.678 232.463 509.619 232.262 509.671C232.061 509.724 231.903 509.881 231.85 510.082Z" fill="#E55A61"/>
<rect x="276.718" y="404.95" width="96.2803" height="128.918" rx="8.20058" fill="#9A7ED9"/>
<mask id="mask11_23_56" style="mask-type:luminance" maskUnits="userSpaceOnUse" x="276" y="404" width="97" height="130">
<rect x="276.718" y="404.95" width="96.2803" height="128.918" rx="8.20058" fill="white"/>
</mask>
<g mask="url(#mask11_23_56)">
<path d="M372.998 475.061C367.595 461.513 376.678 540.329 317.829 533.868C258.98 527.407 388.232 556.733 388.232 556.733L398.731 507.963" fill="#6F4EB9"/>
</g>
<rect x="285.014" y="415.541" width="79.6886" height="72.1999" rx="4.89569" fill="#EFF3FC"/>
<mask id="mask12_23_56" style="mask-type:luminance" maskUnits="userSpaceOnUse" x="285" y="415" width="80" height="73">
<rect x="285.014" y="415.541" width="79.6886" height="72.1999" rx="4.89569" fill="white"/>
</mask>
<g mask="url(#mask12_23_56)">
<path d="M282.513 451.641C276.718 418.791 300.642 415.31 336.82 415.541C372.998 415.771 276.718 404.949 276.718 404.949L265.134 408.653" fill="#D6DCF2"/>
</g>
<rect x="290.907" y="500.641" width="65.594" height="7.32219" rx="2.77435" fill="#6F4EB9"/>
<rect x="290.907" y="511.832" width="47.7067" height="7.32219" rx="2.77435" fill="#6F4EB9"/>
<path d="M337.023 440.562V434.756H326.253V448.577C326.253 449.347 325.628 449.971 324.858 449.971C324.088 449.971 323.464 449.347 323.464 448.577V434.756H312.694V440.667C312.694 445.248 310.04 449.415 305.888 451.352L303.779 452.337V474.711C303.779 475.581 304.484 476.287 305.354 476.287H319.615C320.363 476.287 321.008 475.761 321.158 475.028L324.088 460.79H325.627L328.557 475.028C328.707 475.761 329.352 476.287 330.1 476.287H344.361C344.779 476.287 345.18 476.121 345.475 475.825C345.771 475.53 345.937 475.129 345.937 474.711V452.232L343.828 451.247C339.676 449.31 337.023 445.143 337.023 440.562Z" fill="#9A7ED9"/>
<path d="M339.934 434.755V440.562C339.941 444.01 341.937 447.144 345.059 448.609L345.938 449.019V434.754L339.934 434.755Z" fill="#9A7ED9"/>
<path d="M309.783 440.666V434.755H303.778V449.124L304.657 448.714C307.779 447.249 309.775 444.114 309.783 440.666Z" fill="#9A7ED9"/>
<path d="M345.747 429.085C345.747 427.932 344.812 426.996 343.658 426.996H306.057C305.503 426.996 304.972 427.216 304.58 427.608C304.189 428 303.969 428.531 303.969 429.085V432.632H345.747V429.085Z" fill="#6F4EB9"/>
<path d="M337.588 456.152L335.959 459.954C335.808 460.231 335.899 460.577 336.166 460.745C336.442 460.904 336.795 460.812 336.958 460.538L338.587 456.736C338.737 456.459 338.646 456.112 338.379 455.944C338.103 455.785 337.75 455.878 337.588 456.152Z" fill="#6F4EB9"/>
<path d="M348.042 517.46L345.313 519.615C345.088 519.841 345.088 520.207 345.313 520.433C345.543 520.65 345.902 520.65 346.131 520.433L348.86 518.278C349.085 518.052 349.085 517.686 348.86 517.46C348.63 517.243 348.271 517.243 348.042 517.46Z" fill="#6F4EB9"/>
<circle cx="123.029" cy="303.077" r="34.1504" fill="#9A7ED9"/>
<rect x="113.912" y="286.483" width="18.2353" height="40.6637" rx="1.76887" fill="#589BF7"/>
<path d="M118.547 279.007H127.512C128.681 279.007 129.629 279.954 129.629 281.123V286.483H116.432V281.122C116.432 279.954 117.379 279.007 118.547 279.007Z" fill="#FFC562"/>
<mask id="mask13_23_56" style="mask-type:luminance" maskUnits="userSpaceOnUse" x="116" y="279" width="14" height="8">
<path fill-rule="evenodd" clip-rule="evenodd" d="M118.547 279.007H127.512C128.681 279.007 129.629 279.954 129.629 281.123V286.483H116.432V281.122C116.432 279.954 117.379 279.007 118.547 279.007Z" fill="white"/>
</mask>
<g mask="url(#mask13_23_56)">
<path d="M118.6 286.483C117.82 285.438 129.863 286.46 129.912 282.122C129.961 277.783 132.74 287.729 132.74 287.729L124.695 289.484" fill="#D89D35"/>
</g>
<rect x="116.866" y="295.617" width="12.3275" height="3.1205" rx="1.18238" fill="#2976DF"/>
<rect x="119.324" y="300.915" width="7.41109" height="0.877669" rx="0.332472" fill="#2976DF"/>
<rect x="116.159" y="319.345" width="13.7414" height="0.682583" fill="#2976DF"/>
<path d="M120.694 282.853L120.304 283.113C120.266 283.136 120.238 283.172 120.226 283.214C120.214 283.259 120.22 283.306 120.243 283.345C120.265 283.384 120.303 283.412 120.346 283.424C120.39 283.435 120.436 283.429 120.475 283.406L120.865 283.146C120.902 283.123 120.93 283.087 120.943 283.045C120.955 283.001 120.949 282.954 120.926 282.914C120.903 282.875 120.866 282.847 120.822 282.835C120.779 282.824 120.733 282.83 120.694 282.853Z" fill="#D89D35"/>
<path d="M125.191 313.415L126.361 312.115C126.426 312.048 126.426 311.942 126.361 311.875C126.295 311.81 126.188 311.81 126.122 311.875L124.951 313.175C124.887 313.242 124.887 313.348 124.951 313.415C125.018 313.481 125.124 313.481 125.191 313.415Z" fill="#2976DF"/>
<path d="M118.699 323.742C118.79 323.739 118.862 323.664 118.862 323.572C118.862 323.481 118.79 323.406 118.699 323.403C118.607 323.406 118.535 323.481 118.535 323.572C118.535 323.664 118.607 323.739 118.699 323.742Z" fill="#7B5CB7"/>
<circle cx="296.65" cy="389.234" r="42.8533" fill="#97CC64"/>
<path d="M292.241 406.022H301.059V416.367C301.059 416.983 300.56 417.483 299.943 417.483H293.357C293.061 417.483 292.777 417.365 292.568 417.156C292.359 416.947 292.241 416.663 292.241 416.367V406.022H292.241Z" fill="#935738"/>
<mask id="mask14_23_56" style="mask-type:luminance" maskUnits="userSpaceOnUse" x="292" y="406" width="10" height="12">
<path fill-rule="evenodd" clip-rule="evenodd" d="M292.241 406.022H301.059V416.367C301.059 416.983 300.56 417.483 299.943 417.483H293.357C293.061 417.483 292.777 417.365 292.568 417.156C292.359 416.947 292.241 416.663 292.241 416.367V406.022H292.241Z" fill="white"/>
</mask>
<g mask="url(#mask14_23_56)">
<path d="M291.576 411.754C293.203 409.118 289.63 417.073 299.943 417.484C310.257 417.895 290.315 419.614 290.315 419.614L288.252 415.682" fill="#6D3417"/>
</g>
<path d="M306.159 363.582H287.14L292.237 406.06H301.062L306.159 363.582Z" fill="#F0F3FC"/>
<mask id="mask15_23_56" style="mask-type:luminance" maskUnits="userSpaceOnUse" x="287" y="363" width="20" height="44">
<path fill-rule="evenodd" clip-rule="evenodd" d="M306.159 363.582H287.14L292.237 406.06H301.062L306.159 363.582Z" fill="white"/>
</mask>
<g mask="url(#mask15_23_56)">
<path d="M288.221 380.122C290.201 372.97 288.767 406.206 301.059 409.529C313.351 412.852 281.606 412.421 281.606 412.421L281.491 400.343" fill="#D6DCF2"/>
</g>
<rect x="287.141" y="360.984" width="19.0188" height="2.5982" fill="#D6DCF2"/>
<path d="M295.893 368.577C294.673 369.747 293.384 370.841 292.031 371.854C291.807 372.022 292.026 372.404 292.253 372.234C293.636 371.2 294.956 370.082 296.203 368.888C296.408 368.692 296.097 368.381 295.893 368.578L295.893 368.577Z" fill="#D6DCF2"/>
<path d="M300.131 389.432L299.787 389.776C299.746 389.818 299.723 389.873 299.722 389.932C299.722 390.053 299.821 390.151 299.942 390.151C300 390.15 300.056 390.127 300.097 390.087L300.441 389.743C300.482 389.702 300.505 389.646 300.506 389.588C300.505 389.53 300.482 389.474 300.441 389.433C300.4 389.392 300.344 389.369 300.286 389.368C300.228 389.37 300.173 389.392 300.131 389.433L300.131 389.432Z" fill="#D6DCF2"/>
<path d="M295.645 412.834C296.386 412.66 297.098 412.384 297.762 412.012C298.009 411.874 297.787 411.494 297.54 411.633C296.909 411.985 296.232 412.246 295.529 412.41C295.253 412.475 295.37 412.898 295.646 412.834H295.645Z" fill="#6D3417"/>
<path d="M148.34 184.532C146.027 181.834 100.548 129.032 99.3906 127.875C98.2336 126.719 94.2202 108.343 89.8817 110.121C87.1849 111.227 87.0572 128.646 91.6823 134.428C96.3074 140.209 144.099 212.629 144.099 212.629L148.34 184.532Z" fill="#FF9763"/>
<mask id="mask16_23_56" style="mask-type:luminance" maskUnits="userSpaceOnUse" x="88" y="110" width="61" height="103">
<path fill-rule="evenodd" clip-rule="evenodd" d="M148.34 184.532C146.027 181.834 100.548 129.032 99.3906 127.875C98.2336 126.719 94.2202 108.343 89.8817 110.121C87.1849 111.227 87.0572 128.646 91.6823 134.428C96.3074 140.209 144.099 212.629 144.099 212.629L148.34 184.532Z" fill="white"/>
</mask>
<g mask="url(#mask16_23_56)">
<path d="M109.678 171.686C130.787 194.795 142.705 176.527 146.079 177.773C149.454 179.019 150.342 189.462 150.342 189.462L136.565 204.235L115.456 200.572" fill="#E84B23"/>
</g>
<path d="M127.527 202.261C129.069 186.33 146.078 177.773 146.078 177.773C146.078 177.773 171.722 202.261 190.222 202.261C202.662 202.261 193.819 220.761 193.819 220.761L179.336 247.484L127.527 202.261Z" fill="#FFC562"/>
<mask id="mask17_23_56" style="mask-type:luminance" maskUnits="userSpaceOnUse" x="127" y="177" width="70" height="71">
<path fill-rule="evenodd" clip-rule="evenodd" d="M127.527 202.261C129.069 186.33 146.078 177.773 146.078 177.773C146.078 177.773 171.722 202.261 190.222 202.261C202.662 202.261 193.819 220.761 193.819 220.761L179.336 247.484L127.527 202.261Z" fill="white"/>
</mask>
<g mask="url(#mask17_23_56)">
<path d="M122.995 221.316C143.759 216.43 144.793 212.196 159.918 222.428C175.043 232.66 180.734 216.088 187.277 218.424C193.819 220.761 194.394 253.123 194.394 253.123L165.923 258.016L122.995 221.316Z" fill="#D89D35"/>
<path d="M170.885 183.452C142.011 179.294 136.383 217.712 136.383 217.712" stroke="white" stroke-width="3.45408" stroke-linecap="round" stroke-linejoin="round"/>
</g>
<path d="M239.094 247.484C239.932 248.321 249.403 270.722 251.443 287.12C254.094 308.441 251.085 336.029 251.376 336.901C251.89 338.443 255.802 360.514 251.398 355.985C248.026 352.517 244.785 341.302 244.785 341.302C244.785 341.302 238.956 347.467 240.839 342.297C242.066 338.93 239.362 309.997 235.312 292.228C234.047 287.337 231.821 282.748 228.763 278.727C224.653 272.921 239.094 247.484 239.094 247.484Z" fill="#FF9763"/>
<mask id="mask18_23_56" style="mask-type:luminance" maskUnits="userSpaceOnUse" x="228" y="247" width="26" height="110">
<path fill-rule="evenodd" clip-rule="evenodd" d="M239.094 247.484C239.932 248.321 249.403 270.722 251.443 287.12C254.094 308.441 251.085 336.029 251.376 336.901C251.89 338.443 255.802 360.514 251.398 355.985C248.026 352.517 244.785 341.302 244.785 341.302C244.785 341.302 238.956 347.467 240.839 342.297C242.066 338.93 239.362 309.997 235.312 292.228C234.047 287.337 231.821 282.748 228.763 278.727C224.653 272.921 239.094 247.484 239.094 247.484Z" fill="white"/>
</mask>
<g mask="url(#mask18_23_56)">
<path d="M226.556 289.601C239.888 289.675 239.335 272.404 245.278 267.374C251.221 262.344 231.888 266.344 231.888 266.344L222.308 278.727" fill="#E84B23"/>
</g>
<path d="M182.225 511.263L184.4 532.955H199.364L195.114 505.1L182.225 511.263Z" fill="#FF9763"/>
<mask id="mask19_23_56" style="mask-type:luminance" maskUnits="userSpaceOnUse" x="182" y="505" width="18" height="28">
<path fill-rule="evenodd" clip-rule="evenodd" d="M182.225 511.263L184.4 532.955H199.364L195.114 505.1L182.225 511.263Z" fill="white"/>
</mask>
<g mask="url(#mask19_23_56)">
<path d="M180.341 519.028C180.337 522.876 195.997 521.551 198.054 524.38C200.111 527.209 199.362 519.028 199.362 519.028L194.779 514.432L187.557 514.654" fill="#E84B23"/>
</g>
<path d="M150.099 537.834C150.099 537.834 150.099 525.122 169.379 528.592C179.192 530.358 183.616 525.122 183.616 525.122C183.616 525.122 194.903 532.162 199.057 531.322L200.281 537.834H150.099Z" fill="#3A3530"/>
<path d="M258.442 492.767L270.42 532.634H254.745L242.443 496.102L258.442 492.767Z" fill="#FF9763"/>
<mask id="mask20_23_56" style="mask-type:luminance" maskUnits="userSpaceOnUse" x="242" y="492" width="29" height="41">
<path fill-rule="evenodd" clip-rule="evenodd" d="M258.442 492.767L270.42 532.634H254.745L242.443 496.102L258.442 492.767Z" fill="white"/>
</mask>
<g mask="url(#mask20_23_56)">
<path d="M242.444 525.122C258.775 526.097 254.338 513.775 263.667 510.159C272.996 506.544 253.577 505.1 253.577 505.1L241.133 514.965" fill="#E84B23"/>
</g>
<path d="M301.795 538.1C301.795 538.1 306.257 523.605 285.13 529.236C276.375 531.569 267.137 521.709 267.137 521.709C267.137 521.709 258.372 530.105 253.577 529.164L256.367 538.1H301.795Z" fill="#3A3530"/>
<path d="M180.692 521.003C198.307 523.851 203.369 517.444 203.369 517.444L193.048 391.888L206.924 283.199L162.985 286.282C162.985 286.282 157.203 380.882 157.974 389.19C158.746 397.498 180.692 521.003 180.692 521.003Z" fill="#589BF7"/>
<mask id="mask21_23_56" style="mask-type:luminance" maskUnits="userSpaceOnUse" x="157" y="283" width="50" height="239">
<path fill-rule="evenodd" clip-rule="evenodd" d="M180.692 521.003C198.307 523.851 203.369 517.444 203.369 517.444L193.048 391.888L206.924 283.199L162.985 286.282C162.985 286.282 157.203 380.882 157.974 389.19C158.746 397.498 180.692 521.003 180.692 521.003Z" fill="white"/>
</mask>
<g mask="url(#mask21_23_56)">
<path d="M184.524 312.426C189.139 347.312 182.599 368.891 192.544 410.92C202.49 452.948 206.924 359.587 206.924 359.587L210.19 344.188" fill="#2976DF"/>
</g>
<path d="M184.344 322.551L199.472 378.527L244.085 516.026C252.174 516.242 260.064 513.502 266.278 508.319L231.334 372.874L218.649 278.727L173.708 283.199" fill="#589BF7"/>
<mask id="mask22_23_56" style="mask-type:luminance" maskUnits="userSpaceOnUse" x="173" y="278" width="94" height="239">
<path fill-rule="evenodd" clip-rule="evenodd" d="M184.344 322.551L199.472 378.527L244.085 516.026C252.174 516.242 260.064 513.502 266.278 508.319L231.334 372.874L218.649 278.727L173.708 283.199" fill="white"/>
</mask>
<g mask="url(#mask22_23_56)">
<path d="M153.083 282.326C174.335 341.714 208.696 266.204 228.028 323.533C247.359 380.861 218.65 278.727 218.65 278.727L171.451 258.123L148.341 274.121L127.528 289.601L118.171 302.04" fill="#2976DF"/>
</g>
<path d="M162.986 286.283C146.323 312.395 178.789 309.46 210.519 294.245C242.25 279.029 180.331 284.162 180.331 284.162" fill="#F0F3FC"/>
<path d="M190.222 202.261C190.222 202.261 215.916 205.344 225.681 218.192C225.681 218.192 225.681 260.331 220.456 292.135C220.456 292.135 168.639 304.982 154.25 291.679C143.979 282.183 166.696 240.689 180.542 217.712" fill="#FFC562"/>
<mask id="mask23_23_56" style="mask-type:luminance" maskUnits="userSpaceOnUse" x="151" y="202" width="75" height="96">
<path fill-rule="evenodd" clip-rule="evenodd" d="M190.222 202.261C190.222 202.261 215.916 205.344 225.681 218.192C225.681 218.192 225.681 260.331 220.456 292.135C220.456 292.135 168.639 304.982 154.25 291.679C143.979 282.183 166.696 240.689 180.542 217.712" fill="white"/>
</mask>
<g mask="url(#mask23_23_56)">
<path d="M224.846 293.382C186.606 320.238 224.197 293.96 212.593 262.066C208.263 250.164 209.297 243.335 209.297 243.335L234.654 285.597L224.846 295.828" fill="#D89D35"/>
<path fill-rule="evenodd" clip-rule="evenodd" d="M170.444 244.474C173.359 235.701 181.758 229.943 190.991 230.387C199.61 231.251 204.386 238.961 201.657 247.604C198.743 256.377 190.344 262.135 181.11 261.691C172.492 260.827 167.716 253.117 170.444 244.474ZM173.788 244.809C171.644 251.601 175.396 257.658 182.168 258.337H182.169C189.423 258.686 196.023 254.161 198.312 247.269C200.456 240.477 196.704 234.42 189.932 233.741C182.677 233.392 176.078 237.916 173.788 244.809Z" fill="#D89D35"/>
<path d="M181.917 242.056C182.906 242.104 183.806 241.487 184.119 240.547C184.281 240.15 184.243 239.699 184.017 239.334C183.791 238.969 183.404 238.734 182.976 238.702C181.986 238.655 181.086 239.272 180.774 240.212C180.612 240.609 180.65 241.06 180.876 241.425C181.102 241.79 181.489 242.024 181.917 242.056Z" fill="#D89D35"/>
<path d="M193.426 239.75C192.437 239.703 191.537 240.32 191.225 241.26C191.063 241.657 191.101 242.108 191.327 242.473C191.553 242.838 191.94 243.072 192.368 243.104C193.357 243.152 194.257 242.535 194.569 241.595C194.731 241.198 194.694 240.747 194.468 240.382C194.241 240.017 193.855 239.782 193.426 239.75Z" fill="#D89D35"/>
<path d="M191.995 245.197C191.175 245.158 190.428 245.667 190.164 246.444L190.162 246.451C189.395 248.763 187.182 250.28 184.75 250.162C183.723 250.089 182.79 249.538 182.23 248.675C181.669 247.811 181.547 246.735 181.899 245.768C181.919 245.72 181.937 245.671 181.953 245.621C182.088 245.29 182.056 244.914 181.868 244.61C181.679 244.305 181.357 244.11 181 244.084C180.175 244.044 179.425 244.558 179.165 245.341H179.155L179.153 245.348C178.483 246.988 178.639 248.848 179.571 250.354C180.504 251.859 182.1 252.827 183.866 252.958C187.945 253.155 191.656 250.613 192.945 246.739L192.947 246.735V246.734V246.732L192.949 246.725C193.081 246.394 193.047 246.021 192.859 245.719C192.67 245.418 192.35 245.224 191.995 245.197Z" fill="#D89D35"/>
<ellipse cx="206.846" cy="207.741" rx="15.552" ry="13.2528" transform="rotate(-65.7103 206.846 207.741)" fill="#F0F3FC"/>
</g>
<path d="M204.709 246.552L225.68 283.199C235.83 282.043 248.934 262.387 248.934 262.387C248.934 262.387 235.421 222.813 223.779 217.057" fill="#FFC562"/>
<mask id="mask24_23_56" style="mask-type:luminance" maskUnits="userSpaceOnUse" x="204" y="217" width="45" height="67">
<path fill-rule="evenodd" clip-rule="evenodd" d="M204.709 246.552L225.68 283.199C235.83 282.043 248.934 262.387 248.934 262.387C248.934 262.387 235.421 222.813 223.779 217.057" fill="white"/>
</mask>
<g mask="url(#mask24_23_56)">
<path d="M210.776 273.208C239.651 277.367 245.279 238.948 245.279 238.948" stroke="white" stroke-width="3.45408" stroke-linecap="round" stroke-linejoin="round"/>
</g>
<rect x="197.778" y="190.757" width="16.345" height="26.9548" rx="6.19324" fill="#FF9763"/>
<mask id="mask25_23_56" style="mask-type:luminance" maskUnits="userSpaceOnUse" x="197" y="190" width="18" height="28">
<rect x="197.778" y="190.757" width="16.345" height="26.9548" rx="6.19324" fill="white"/>
</mask>
<g mask="url(#mask25_23_56)">
<path d="M195.394 213.912C200.601 214.838 195.852 205.935 202.471 204.032C206.239 202.975 208.6 199.243 207.942 195.386L197.778 189.086C197.778 189.086 190.585 205.965 190.75 206.462" fill="#E84B23"/>
</g>
<path d="M207.197 200.884C203.845 202.224 200.09 202.126 196.813 200.613C190.201 197.571 187.307 189.744 190.349 183.132L195.123 172.755C196.584 169.58 199.246 167.115 202.525 165.903C205.803 164.69 209.429 164.83 212.604 166.291C219.216 169.334 222.11 177.16 219.068 183.772L216.43 189.505" fill="#FF9763"/>
<mask id="mask26_23_56" style="mask-type:luminance" maskUnits="userSpaceOnUse" x="189" y="165" width="32" height="37">
<path fill-rule="evenodd" clip-rule="evenodd" d="M207.197 200.884C203.845 202.224 200.09 202.126 196.813 200.613C190.201 197.571 187.307 189.744 190.349 183.132L195.123 172.755C196.584 169.58 199.246 167.115 202.525 165.903C205.803 164.69 209.429 164.83 212.604 166.291C219.216 169.334 222.11 177.16 219.068 183.772L216.43 189.505" fill="white"/>
</mask>
<g mask="url(#mask26_23_56)">
<ellipse opacity="0.27" cx="189.139" cy="186.952" rx="4.48079" ry="2.7443" transform="rotate(-6.1159 189.139 186.952)" fill="#E84B23"/>
<ellipse opacity="0.27" cx="206.017" cy="190.577" rx="2.76624" ry="3.73148" transform="rotate(-72.765 206.017 190.577)" fill="#E84B23"/>
<rect x="194.674" y="179.506" width="2.67934" height="4.94191" rx="1.01522" transform="rotate(17.2356 194.674 179.506)" fill="#190000"/>
<rect x="204.404" y="181.737" width="2.67934" height="4.94191" rx="1.01522" transform="rotate(17.2349 204.404 181.737)" fill="#190000"/>
<path d="M196.569 176.788C193.721 176.74 193.999 178.386 195.777 178.533C197.555 178.679 198.43 176.82 196.569 176.788Z" fill="#190000"/>
<path d="M206.573 178.993C208.948 180.565 208.019 181.718 206.471 180.832C204.922 179.946 205.022 177.967 206.573 178.993Z" fill="#190000"/>
<path d="M200.168 186.184C199.999 187.075 199.304 186.577 198.365 186.399C197.426 186.22 196.596 186.428 196.765 185.538C196.985 184.644 197.867 184.077 198.772 184.249C199.678 184.421 200.291 185.271 200.168 186.184Z" fill="#E84B23"/>
<path d="M193.889 189.875C193.726 196.514 200.314 195.122 201.264 191.176C201.31 190.971 201.222 190.76 201.045 190.646C199.023 189.47 196.658 189.025 194.346 189.384C194.093 189.411 193.898 189.62 193.889 189.875Z" fill="#C1525F"/>
<mask id="mask27_23_56" style="mask-type:luminance" maskUnits="userSpaceOnUse" x="193" y="189" width="9" height="6">
<path fill-rule="evenodd" clip-rule="evenodd" d="M193.889 189.875C193.726 196.514 200.314 195.122 201.264 191.176C201.31 190.971 201.222 190.76 201.045 190.646C199.023 189.47 196.658 189.025 194.346 189.384C194.093 189.411 193.898 189.62 193.889 189.875Z" fill="white"/>
</mask>
<g mask="url(#mask27_23_56)">
<ellipse cx="197.695" cy="194.315" rx="3.32923" ry="2.97144" transform="rotate(-7.19253 197.695 194.315)" fill="#993443"/>
<path d="M195.228 189.083C195.129 189.453 195.11 189.84 195.172 190.217C196.515 190.995 198.083 191.288 199.616 191.048C199.812 190.584 199.954 190.1 200.037 189.604L195.775 188.947" fill="#F0F3FC"/>
</g>
</g>
<path d="M223.915 155.936C220.616 154.417 216.82 154.406 213.512 155.906C209.301 150.305 201.444 148.978 195.627 152.885C189.81 156.793 188.068 164.569 191.661 170.585C195.254 176.601 202.926 178.754 209.125 175.486C209.186 175.558 209.243 175.635 209.306 175.706C209.13 176.01 208.923 176.286 208.774 176.611C206.551 181.43 208.049 187.149 212.349 190.26C216.65 193.37 222.55 193.003 226.431 189.383C230.312 185.762 231.089 179.902 228.285 175.396C230.809 172.403 231.788 168.401 230.93 164.581C230.073 160.761 227.477 157.562 223.915 155.936Z" fill="#3A3530"/>
<path d="M209.267 188.252C210.824 185.379 214.39 184.277 217.296 185.77C220.202 187.264 221.381 190.805 219.951 193.743C218.522 196.68 215.006 197.937 212.038 196.571" fill="#FF9763"/>
<path d="M203.514 161.218C202.622 162.549 202.427 164.228 202.991 165.727C203.057 165.942 203.198 166.125 203.388 166.244C203.59 166.36 203.829 166.391 204.054 166.332C204.512 166.2 204.78 165.727 204.658 165.267C204.598 165.116 204.547 164.962 204.505 164.805C204.484 164.726 204.466 164.647 204.45 164.567L204.428 164.447C204.413 164.351 204.415 164.367 204.433 164.496C204.394 164.336 204.384 164.171 204.403 164.008C204.403 163.855 204.416 163.704 204.426 163.551C204.434 163.485 204.43 163.511 204.414 163.63L204.433 163.509C204.447 163.429 204.463 163.349 204.482 163.27C204.519 163.111 204.565 162.955 204.62 162.802L204.664 162.688C204.616 162.801 204.61 162.813 204.648 162.726C204.683 162.653 204.717 162.579 204.755 162.507C204.831 162.363 204.916 162.224 205.008 162.09C205.247 161.677 205.108 161.15 204.698 160.907C204.284 160.678 203.763 160.815 203.515 161.217L203.514 161.218Z" fill="#190000"/>
<path d="M214.548 189.85C214.599 189.898 214.647 189.949 214.69 190.004L214.555 189.829C214.62 189.915 214.675 190.009 214.718 190.108L214.631 189.902C214.679 190.017 214.711 190.137 214.729 190.26L214.698 190.03C214.714 190.154 214.714 190.279 214.698 190.402L214.729 190.172C214.712 190.287 214.682 190.4 214.637 190.507L214.724 190.3C214.692 190.371 214.655 190.439 214.611 190.504C214.433 190.807 214.457 191.189 214.672 191.468C214.887 191.747 215.249 191.868 215.588 191.774C215.802 191.706 215.984 191.565 216.105 191.376C216.233 191.185 216.325 190.971 216.376 190.746C216.433 190.516 216.451 190.278 216.429 190.042C216.411 189.742 216.329 189.448 216.188 189.183C216.085 188.973 215.943 188.785 215.771 188.627C215.606 188.469 215.388 188.378 215.159 188.374C214.93 188.376 214.711 188.467 214.548 188.627C214.386 188.789 214.295 189.009 214.295 189.239C214.295 189.468 214.386 189.688 214.548 189.85H214.548Z" fill="#190000"/>
<path d="M166.251 277.715C168.869 280.256 172.064 282.124 175.562 283.16C176.022 283.287 176.499 283.016 176.626 282.556C176.753 282.095 176.482 281.619 176.022 281.492C172.81 280.541 169.877 278.826 167.474 276.492C166.676 275.716 165.451 276.938 166.251 277.715H166.251Z" fill="#D89D35"/>
<path d="M198.431 309.527C197.331 313.444 198.343 317.651 201.103 320.639C203.863 323.628 207.976 324.97 211.968 324.185C213.062 323.988 212.598 322.321 211.508 322.517C208.118 323.137 204.647 321.966 202.327 319.418C200.007 316.869 199.164 313.305 200.099 309.987C200.226 309.527 199.955 309.05 199.495 308.923C199.034 308.796 198.558 309.067 198.431 309.527Z" fill="#2976DF"/>
<path d="M176.409 522.742C177.659 524.289 178.512 526.118 178.894 528.069L180.561 527.609C179.788 525.738 177.363 525.302 175.596 524.867C173.448 524.342 171.249 524.054 169.039 524.007C168.561 524.007 168.174 524.394 168.174 524.872C168.174 525.349 168.561 525.736 169.039 525.736C170.894 525.773 172.741 525.995 174.552 526.397C175.462 526.601 176.361 526.849 177.248 527.141C177.745 527.305 178.667 527.518 178.894 528.069C179.021 528.529 179.497 528.8 179.958 528.673C180.418 528.546 180.689 528.069 180.562 527.609C180.098 525.37 179.092 523.279 177.632 521.518C177.293 521.184 176.748 521.184 176.409 521.518C176.082 521.86 176.082 522.399 176.409 522.742L176.409 522.742Z" fill="#190000"/>
<path d="M272.833 520.55C272.058 522.224 271.667 524.049 271.688 525.893C271.697 526.238 271.909 526.546 272.228 526.678C272.547 526.81 272.914 526.742 273.165 526.505C275.497 524.159 278.348 522.395 281.488 521.355C282.54 521.009 282.089 519.338 281.028 519.687C277.602 520.813 274.489 522.73 271.942 525.282L273.418 525.893C273.386 524.354 273.696 522.827 274.327 521.422C274.553 521.008 274.417 520.489 274.017 520.239C273.604 520.002 273.077 520.14 272.833 520.55L272.833 520.55Z" fill="#190000"/>
<path d="M177.512 512.701L179.65 521.709C179.65 521.709 195.355 525.72 204.079 517.444L203.365 508.76C203.365 508.76 198.044 516.447 177.512 512.701Z" fill="#FFC562"/>
<path d="M265.093 499.958L267.069 509.003C267.069 509.003 254.655 519.422 243.205 515.745L240.086 507.609C240.086 507.609 248.211 512.232 265.093 499.958Z" fill="#FFC562"/>
<path d="M97.1615 128.194L95.2364 129.477C95.0451 129.595 94.9036 129.779 94.8389 129.994C94.7791 130.219 94.8104 130.458 94.926 130.66C95.0417 130.858 95.2314 131.003 95.4534 131.061C95.6753 131.119 95.9113 131.087 96.1094 130.971L98.0345 129.688C98.2259 129.57 98.3674 129.386 98.432 129.171C98.4918 128.946 98.4605 128.707 98.3449 128.505C98.2292 128.306 98.0395 128.162 97.8175 128.104C97.5956 128.046 97.3596 128.078 97.1615 128.194Z" fill="#E84B23"/>
<path d="M247.277 340.889L248.56 337.039C248.684 336.578 248.415 336.104 247.956 335.975C247.497 335.859 247.028 336.125 246.892 336.579L245.609 340.429C245.485 340.889 245.754 341.363 246.213 341.493C246.672 341.609 247.141 341.342 247.277 340.889Z" fill="#E84B23"/>
<path d="M207.986 254.475C208.507 257.281 209.833 259.875 211.802 261.941C212.569 262.749 213.791 261.525 213.024 260.717C211.272 258.86 210.101 256.53 209.655 254.016C209.524 253.558 209.051 253.289 208.591 253.412C208.137 253.547 207.87 254.016 207.986 254.476L207.986 254.475Z" fill="#D89D35"/>
<path d="M215.927 227.158C213.217 228.436 211.475 231.15 211.444 234.146C211.444 234.624 211.831 235.011 212.309 235.011C212.786 235.011 213.173 234.624 213.173 234.146C213.176 232.98 213.525 231.841 214.176 230.874C214.313 230.651 214.471 230.441 214.646 230.246C214.846 230.017 215.061 229.8 215.289 229.599C215.493 229.413 215.716 229.247 215.952 229.104C216.223 228.934 216.506 228.783 216.798 228.653C217.208 228.41 217.346 227.883 217.108 227.47C216.86 227.067 216.339 226.931 215.925 227.159L215.927 227.158Z" fill="#D89D35"/>
<path d="M177.325 224.392C178.504 222.736 179.607 221.029 180.633 219.271C180.874 218.859 180.735 218.329 180.322 218.088C179.91 217.847 179.38 217.986 179.139 218.398C178.114 220.154 177.011 221.861 175.831 223.519C175.592 223.932 175.731 224.46 176.142 224.702C176.556 224.93 177.076 224.794 177.325 224.392Z" fill="#D89D35"/>
<path d="M182.062 498.597C184.808 500.093 187.935 500.738 191.048 500.452C191.521 500.44 191.9 500.06 191.913 499.588C191.91 499.112 191.525 498.726 191.048 498.723C188.243 499.004 185.417 498.441 182.935 497.105C181.956 496.574 181.082 498.067 182.062 498.598L182.062 498.597Z" fill="#2976DF"/>
<path d="M215.402 391.707L227.396 397.665C228.389 398.159 229.266 396.667 228.269 396.172L216.275 390.213C215.282 389.719 214.404 391.211 215.402 391.707H215.402Z" fill="#2976DF"/>
<rect x="253.476" y="229.315" width="55.6658" height="100.707" rx="8.37346" fill="#2976DF"/>
<mask id="mask28_23_56" style="mask-type:luminance" maskUnits="userSpaceOnUse" x="253" y="229" width="57" height="102">
<rect x="253.476" y="229.315" width="55.6658" height="100.707" rx="8.37346" fill="white"/>
</mask>
<g mask="url(#mask28_23_56)">
<path d="M273.872 293.304C288.686 320.735 283.754 339.156 283.754 339.156H309.608L313.531 291.333H264.029" fill="#1665C4"/>
</g>
<rect x="260.636" y="239.478" width="14.9813" height="18.4783" rx="2.62315" fill="#589BF7"/>
<path d="M286.705 291.333C286.705 291.333 304.753 319.05 290.603 349.886" stroke="#3A3530" stroke-width="1.86497" stroke-linecap="round" stroke-linejoin="round"/>
<rect x="275.618" y="358.894" width="11.0869" height="180.106" fill="#589BF7"/>
<mask id="mask29_23_56" style="mask-type:luminance" maskUnits="userSpaceOnUse" x="275" y="358" width="12" height="181">
<rect x="275.618" y="358.894" width="11.0869" height="180.106" fill="white"/>
</mask>
<g mask="url(#mask29_23_56)">
<path d="M272.995 423.248C275.753 399.259 289.515 397.964 289.515 397.964L290.603 384.409L267.317 387.981" fill="#2976DF"/>
</g>
<rect x="271.72" y="380.375" width="18.8824" height="18.8824" rx="3.05609" fill="#F0F3FC"/>
<path fill-rule="evenodd" clip-rule="evenodd" d="M203.854 247.336C216.806 216.068 247.317 195.681 281.161 195.681C327.374 195.681 364.838 233.145 364.838 279.358C364.838 313.202 344.451 343.713 313.183 356.665C281.915 369.616 245.924 362.457 221.993 338.526C198.062 314.595 190.903 278.604 203.854 247.336ZM214.955 279.358C214.955 315.922 244.597 345.564 281.161 345.564C317.726 345.564 347.367 315.922 347.368 279.358C347.368 242.793 317.726 213.151 281.161 213.151C244.597 213.151 214.955 242.793 214.955 279.358Z" fill="#F0F3FC"/>
<mask id="mask30_23_56" style="mask-type:luminance" maskUnits="userSpaceOnUse" x="197" y="195" width="168" height="169">
<path fill-rule="evenodd" clip-rule="evenodd" d="M281.161 195.681C247.317 195.681 216.806 216.068 203.854 247.336C190.903 278.604 198.062 314.595 221.993 338.526C245.924 362.457 281.915 369.616 313.183 356.665C344.451 343.713 364.838 313.202 364.838 279.358C364.838 233.145 327.374 195.681 281.161 195.681ZM281.161 345.564C244.597 345.564 214.955 315.922 214.955 279.358C214.955 242.793 244.597 213.151 281.161 213.151C317.726 213.151 347.368 242.793 347.368 279.358C347.367 315.922 317.726 345.564 281.161 345.564Z" fill="white"/>
</mask>
<g mask="url(#mask30_23_56)">
<path d="M336.953 300.341C372.817 309.976 400.313 286.713 400.313 286.713L364.838 347.573L323.204 320.609" fill="#D6DCF2"/>
</g>
<rect x="249.318" y="276.665" width="64.2122" height="20.0951" rx="1.71461" fill="#9A7ED9"/>
<circle cx="286.705" cy="285.096" r="15.2447" fill="#6F4EB9"/>
<path d="M291.636 256.141L288.658 260.93C288.328 261.507 288.521 262.243 289.092 262.583C289.67 262.906 290.4 262.714 290.745 262.15L293.723 257.361C294.053 256.784 293.86 256.048 293.289 255.708C292.711 255.385 291.981 255.576 291.636 256.141Z" fill="#1665C4"/>
<path d="M284.693 465.13L283.498 466.326C283.044 466.805 283.044 467.555 283.498 468.035C283.725 468.261 284.032 468.388 284.352 468.39L284.674 468.347C284.875 468.291 285.059 468.184 285.207 468.036L286.402 466.841C286.856 466.361 286.856 465.611 286.402 465.132C286.175 464.905 285.868 464.778 285.548 464.777L285.227 464.82C285.025 464.876 284.841 464.982 284.693 465.13V465.13Z" fill="#2976DF"/>
</svg>
