<svg width="50" height="50" viewBox="0 0 50 50" fill="none" xmlns="http://www.w3.org/2000/svg">
<path d="M10.0556 21.6389C14.0556 29.5 20.5 35.9167 28.3611 39.9444L34.4722 33.8333C35.2222 33.0833 36.3333 32.8333 37.3056 33.1667C40.4167 34.1944 43.7778 34.75 47.2222 34.75C48.75 34.75 50 36 50 37.5278V47.2222C50 48.75 48.75 50 47.2222 50C21.1389 50 0 28.8611 0 2.77778C0 1.25 1.25 0 2.77778 0H12.5C14.0278 0 15.2778 1.25 15.2778 2.77778C15.2778 6.25 15.8333 9.58333 16.8611 12.6944C17.1667 13.6667 16.9444 14.75 16.1667 15.5278L10.0556 21.6389Z" fill="#D32F2F"/>
</svg>
