<svg width="25" height="25" viewBox="0 0 25 25" fill="none" xmlns="http://www.w3.org/2000/svg">
<rect x="0.42688" y="0.523499" width="24" height="24" rx="10" fill="#FEFEFE"/>
<path d="M18.4469 14.5244C17.9802 14.5309 17.4293 14.6355 17.0113 14.9287C16.8823 15.0182 16.9049 15.1425 17.0484 15.126C17.5184 15.0695 18.5645 14.9427 18.7515 15.1817C18.939 15.4207 18.5442 16.4067 18.3697 16.8477C18.3157 16.9792 18.4299 17.0336 18.5504 16.9336C19.3324 16.2786 19.5356 14.9055 19.3756 14.708C19.2953 14.6093 18.9135 14.5179 18.4469 14.5244ZM4.53475 15.0244C4.42572 15.0394 4.37875 15.1776 4.49275 15.2871C6.45125 17.1241 9.03918 18.0235 11.9127 18.0235C13.9622 18.0235 16.3415 17.3547 17.984 16.0947C18.2555 15.8852 18.0242 15.5713 17.7457 15.6953C15.9042 16.5078 13.9041 16.8994 12.0836 16.8994C9.38557 16.8994 6.77372 16.3362 4.66072 15.0567C4.61447 15.0287 4.57109 15.0194 4.53475 15.0244Z" fill="#FF9900"/>
<path d="M8.29895 8.5235L8.19446 8.54108C7.86746 8.58208 7.55216 8.70441 7.29016 8.90241C7.23166 8.93741 7.17922 8.98431 7.12122 9.03131C7.11522 9.01981 7.1095 9.00766 7.1095 8.99616C7.0975 8.93166 7.0917 8.86241 7.0802 8.79791C7.0627 8.69291 7.00454 8.63971 6.89954 8.63971H6.62512C6.45612 8.63971 6.42688 8.67543 6.42688 8.83893V13.9014C6.43288 13.9774 6.47909 14.0175 6.54309 14.0235H7.0509C7.1209 14.0235 7.16161 13.9774 7.16711 13.9014C7.17311 13.8779 7.17297 13.8546 7.17297 13.8311V12.0723C7.19647 12.0958 7.21421 12.1077 7.22571 12.1192C7.65171 12.4752 8.14183 12.5914 8.67883 12.4864C9.16883 12.3874 9.50678 12.0899 9.72278 11.6524C9.89178 11.3199 9.96092 10.9818 9.96692 10.6143C9.97842 10.2118 9.94354 9.82437 9.77454 9.44537C9.57604 8.97887 9.23809 8.66951 8.73059 8.56451C8.65459 8.54701 8.57319 8.54086 8.49719 8.52936C8.42719 8.52336 8.36295 8.5235 8.29895 8.5235ZM12.1847 8.5235C12.1612 8.5295 12.1389 8.53522 12.1154 8.53522C11.8819 8.54672 11.6539 8.57585 11.4269 8.63385C11.2809 8.66885 11.1411 8.72114 11.0011 8.76764C10.9136 8.79664 10.8722 8.86116 10.8722 8.95416C10.8782 9.03016 10.8722 9.11156 10.8722 9.18756C10.8782 9.30406 10.9253 9.33425 11.0363 9.30475C11.2228 9.25825 11.4093 9.20596 11.5958 9.17096C11.8873 9.11846 12.185 9.0948 12.4825 9.1358C12.64 9.1648 12.7859 9.20591 12.8849 9.33991C12.9724 9.45091 13.0078 9.59053 13.0138 9.73053C13.0198 9.92903 13.0197 10.0862 13.0197 10.2842C13.0197 10.2957 13.0198 10.3071 13.0138 10.3126H12.9845C12.7335 10.2486 12.4773 10.2139 12.2208 10.1964C11.9523 10.1849 11.6844 10.1966 11.4279 10.2901C11.1189 10.3951 10.8673 10.5813 10.7218 10.8848C10.6108 11.1183 10.5931 11.3638 10.6281 11.6143C10.6806 11.9528 10.8442 12.2091 11.1417 12.3721C11.4277 12.5296 11.731 12.5466 12.046 12.5001C12.4075 12.4476 12.7279 12.2961 13.0079 12.0626C13.0194 12.0511 13.0316 12.0457 13.0431 12.0342C13.0606 12.1277 13.0725 12.2154 13.09 12.2969C13.1015 12.3729 13.1489 12.4189 13.2189 12.4249H13.6095C13.668 12.4249 13.7208 12.3727 13.7208 12.3087C13.7268 12.2912 13.7267 12.2672 13.7267 12.2442V9.75494C13.7252 9.65544 13.7188 9.55023 13.7013 9.45123C13.6548 9.14223 13.5262 8.88524 13.2462 8.72174C13.0887 8.62824 12.9142 8.5818 12.7277 8.5528C12.6402 8.5408 12.5583 8.535 12.4708 8.5235H12.1847ZM14.2072 8.52448C14.1487 8.52448 14.1195 8.57633 14.131 8.63483C14.1425 8.68183 14.1604 8.73481 14.1779 8.78131C14.6444 9.93631 15.1165 11.0905 15.589 12.251C15.63 12.35 15.6355 12.4323 15.589 12.5313C15.5135 12.7058 15.4488 12.8866 15.3673 13.0616C15.2973 13.2191 15.181 13.3364 15.006 13.3829C14.8895 13.4124 14.7613 13.4238 14.6388 13.4063C14.5803 13.4003 14.5215 13.3889 14.463 13.3829C14.381 13.3769 14.3411 13.4116 14.3351 13.4991V13.7335C14.3411 13.868 14.3817 13.9258 14.5157 13.9493C14.6442 13.9723 14.7781 13.9892 14.9181 13.9952C15.3261 14.0007 15.6475 13.8385 15.8575 13.4825C15.945 13.3425 16.0152 13.1965 16.0792 13.045C16.6447 11.616 17.2048 10.1929 17.7648 8.75787C17.7823 8.71687 17.793 8.67547 17.799 8.62897C17.8105 8.55897 17.7755 8.52445 17.712 8.52545H17.2404C17.1589 8.51945 17.0828 8.57152 17.0538 8.64752C17.0423 8.68252 17.0302 8.71116 17.0187 8.74616L16.1847 11.1319C16.1262 11.3009 16.0616 11.4757 16.0031 11.6622C15.9911 11.6327 15.9856 11.6211 15.9796 11.6036C15.6706 10.7521 15.3677 9.90137 15.0587 9.04987C15.0122 8.90987 14.9598 8.77469 14.9073 8.64069C14.8843 8.57619 14.831 8.53033 14.755 8.53033C14.574 8.52433 14.3937 8.52448 14.2072 8.52448ZM8.29309 9.12994C8.64909 9.15894 8.94042 9.33411 9.09192 9.74811C9.18542 10.0046 9.20911 10.2521 9.20911 10.5206C9.20911 10.7716 9.19183 10.9935 9.11633 11.2325C8.95283 11.74 8.57921 11.9381 8.10071 11.9151C7.76221 11.8976 7.47663 11.7686 7.20813 11.5821C7.17913 11.5646 7.16161 11.5364 7.16711 11.5069V9.52643C7.16161 9.49143 7.17913 9.46287 7.20813 9.44537C7.53463 9.21787 7.89609 9.10094 8.29309 9.12994ZM12.0773 10.7051C12.1771 10.6964 12.2778 10.6983 12.3771 10.71C12.5756 10.7275 12.7743 10.7621 12.9728 10.7911C13.0138 10.7971 13.0245 10.8147 13.0245 10.8497C13.0185 10.9667 13.0245 11.0774 13.0245 11.1944C13.0245 11.3109 13.0187 11.4163 13.0187 11.5333C13.0247 11.5623 13.007 11.5851 12.9835 11.6026C12.715 11.7951 12.4234 11.924 12.0909 11.959C11.9569 11.9705 11.8225 11.9705 11.6945 11.918C11.5485 11.8655 11.4386 11.7427 11.3976 11.5967C11.3511 11.4452 11.3512 11.2878 11.3917 11.1358C11.4557 10.9373 11.5953 10.8273 11.7823 10.7628C11.8786 10.7335 11.9774 10.7139 12.0773 10.7051Z" fill="#333E48"/>
</svg>
