<svg width="25" height="25" viewBox="0 0 25 25" fill="none" xmlns="http://www.w3.org/2000/svg">
<rect x="0.42688" y="0.523499" width="24" height="24" rx="10" fill="#5F259E"/>
<path d="M17.3719 9.9733V10.3624C17.3719 10.477 17.3429 10.5626 17.2856 10.6199C17.2284 10.6772 17.1427 10.7061 17.0281 10.7061H16.4314H15.8347C15.7683 10.7061 15.719 10.7237 15.6855 10.76C15.6526 10.7963 15.6362 10.8508 15.6362 10.9228V15.5519V20.1798C15.6362 20.2943 15.6073 20.3806 15.5505 20.4373C15.4932 20.4946 15.407 20.5235 15.2925 20.5235H14.8132H14.3344C14.2198 20.5235 14.1336 20.4946 14.0763 20.4373C14.0196 20.3806 13.9907 20.2949 13.9907 20.1798V18.507V16.8349H13.9555H13.9192C13.774 17.0879 13.563 17.2773 13.2856 17.4044C13.0088 17.5309 12.6657 17.5938 12.255 17.5938H11.993H11.7309C11.3151 17.5938 10.9408 17.5326 10.6078 17.4106C10.2743 17.2892 9.98275 17.106 9.73261 16.8616C9.48247 16.6182 9.29529 16.3289 9.16993 15.9966C9.04514 15.663 8.98218 15.2853 8.98218 14.8644V12.8933V10.9228C8.98218 10.857 8.96857 10.8054 8.94134 10.7691C8.91468 10.7328 8.87385 10.7118 8.81939 10.7061H8.29472H7.77061C7.65603 10.7061 7.57039 10.6755 7.5131 10.6154C7.45581 10.5553 7.42688 10.4656 7.42688 10.3443V9.96479V9.58476C7.42688 9.47642 7.45581 9.39474 7.5131 9.34142C7.57039 9.28697 7.65603 9.25974 7.77061 9.25974H10.4337H13.0968C12.7116 8.85872 12.3384 8.43445 11.9776 7.98578C11.6169 7.53654 11.2692 7.06405 10.9345 6.56604L10.428 5.81505L9.92263 5.06519C9.8988 5.02378 9.88122 4.97954 9.86874 4.93473C9.85683 4.88935 9.85002 4.84284 9.85002 4.79463C9.85002 4.70444 9.87271 4.63637 9.91809 4.591C9.9629 4.54619 10.031 4.5235 10.1212 4.5235H10.6725H11.2238C11.3322 4.5235 11.4257 4.54619 11.5046 4.591C11.5829 4.63637 11.6464 4.70444 11.6946 4.79463L12.9873 6.87404L14.28 8.95288C14.3469 9.05555 14.4189 9.13269 14.4978 9.18317C14.5761 9.23422 14.6606 9.25974 14.7508 9.25974H14.7961H14.8415H15.9351H17.0287C17.1433 9.25974 17.2289 9.2864 17.2862 9.34142C17.3435 9.39531 17.3724 9.47642 17.3724 9.58476L17.3719 9.9733Z" fill="#FEFEFE"/>
<path d="M13.7921 10.7061H12.3094H10.8267C10.7597 10.7061 10.7098 10.7237 10.6769 10.76C10.644 10.7963 10.6276 10.8508 10.6276 10.9228V12.8128V14.7016C10.6276 15.1718 10.7421 15.524 10.9713 15.7589C11.2005 15.9943 11.5442 16.1117 12.0019 16.1117H12.2458H12.4897C12.7433 16.1117 12.9639 16.0793 13.1517 16.0147C13.34 15.95 13.496 15.8525 13.6191 15.7231C13.7427 15.5932 13.8357 15.4407 13.8976 15.2648C13.9594 15.0879 13.9906 14.8888 13.9906 14.6658V12.7946V10.9234C13.9906 10.8513 13.9741 10.7963 13.9407 10.7606C13.9078 10.7237 13.8584 10.7061 13.7921 10.7061Z" fill="#673AB7"/>
</svg>
